<svg height="216" viewBox="0 0 360 216" width="360" xmlns="http://www.w3.org/2000/svg" xmlns:xlink="http://www.w3.org/1999/xlink"><linearGradient id="a" x1="0%" x2="100.08357%" y1="50%" y2="50%"><stop offset="0" stop-color="#e1be78"/><stop offset="1" stop-color="#e3ab36"/></linearGradient><linearGradient id="b" x1="14.633344%" x2="79.38485%" y1="17.428088%" y2="64.766367%"><stop offset="0" stop-color="#e1be78"/><stop offset=".34" stop-color="#fffad1"/><stop offset=".75" stop-color="#c69632"/><stop offset=".99" stop-color="#fcdc99"/></linearGradient><linearGradient id="c" x1=".002838%" x2="99.999879%" y1="49.99664%" y2="49.99664%"><stop offset="0" stop-color="#ffe2a8"/><stop offset="1" stop-color="#d1a149"/></linearGradient><mask id="d" fill="#fff"><path d="m35.207.974c-.534.021-1.257.471-1.263 1.002l-.036 2.814c-.009.579.753 1.029 1.329 1.044 2.013.045 3.792.009 5.736.135.144.012.273.093.273.24l-.015.57c.006.102-.072.189-.174.195h-.021c-2.268 0-4.641-.105-6.936.078-.12.009-.114-.024-.123.096l-.099 1.668-.012.138c2.73-.159 5.466-.159 8.196 0 .66-.021 1.212-.498 1.326-1.146l.027-2.727c0-.558-.69-.975-1.14-1.002-1.923-.12-4.113-.054-6.066-.105-.114-.012-.198-.108-.192-.219l.036-.63c0-.123.084-.159.207-.165 1.935-.069 4.821.021 6.801.084.147-.024.258-.15.258-.306v-1.38c0-.072-.135-.291-.27-.294l-.003-.006c-1.701-.075-3.501-.132-5.274-.132-.867 0-1.728.015-2.565.048zm-12.36 1.068c-.003 0-.006 0-.009 0l-.012 7.875v.102l2.049-.27c.036-.003.057-.033.054-.069v-2.277l4.128-.444c.357-.066.786.198 1.11.735.27.45.438.954.501 1.476l2.031-.15c.042 0 .135 0 .123-.042-.06-1.098-.54-2.127-1.341-2.883v-.003.003c.543-.222.888-.762.855-1.347.021-.822-.009-1.641-.093-2.46-.144-.609-.675-1.047-1.302-1.071-1.839.03-5.829.54-8.094.825zm1.938 3.516v-1.776l.036-.021 4.836-.468c.186-.03.354.093.384.273 0 .009.003.015.003.027l.009.822c-.006.351-.261.654-.609.717l-4.623.456zm21.795-4.257c-.879-.03-1.644.582-1.797 1.443l-.042 5.199c.024.606.447 1.122 1.038 1.263 2.658.246 5.265.483 8.232.933.045.009.138-.033.138-.075v-1.809c-.021-.06-.063-.102-.123-.129-1.974-.249-4.584-.6-6.912-.843-.144-.033-.246-.156-.252-.303v-3.537c0-.147.213-.225.366-.213 2.298.186 4.593.609 6.894.852.06 0 .156-.03.156-.09l.048-1.662c-.006-.069-.057-.126-.129-.141-2.553-.372-4.509-.582-7.62-.891zm8.517 1.137c-.024 1.194-.189 6.345-.225 7.716v.114c.678.114 1.419.21 1.971.321.063.012.153-.033.153-.096-.009-.9 0-1.944-.018-2.763 0-.057.027-.06.087-.054 1.617.291 3.192.606 4.8.951.033.012.222.036.222.138-.006.939-.033 1.74-.057 2.682-.003.078.048.147.12.171.63.147 1.233.297 1.83.435.159.036.183.012.189-.051.096-1.962.126-5.106.156-7.761 0-.033-.012-.084-.048-.096-.657-.15-1.287-.309-1.965-.459-.063-.012-.096.093-.099.153-.066.969-.039 1.869-.117 2.838 0 .036 0 .054-.039.048-1.611-.333-3.324-.696-4.929-.993-.045-.006-.024-.087-.021-.135.009-.951.006-1.893.012-2.841-.006-.06-.051-.111-.108-.129-.633-.108-1.17-.195-1.815-.297-.054 0-.096.06-.099.108zm-34.947 0c-2.361.369-4.737.873-7.134 1.389-.387.111-.732.327-1.002.624-.255.231-.417.549-.45.897l.024 4.86c.015.429.177.837.459 1.158.192.303.525.48.888.4770375 2.373-.5220375 4.764-.9900375 7.107-1.4010375.459-.108.867-.363 1.167-.723.261-.273.411-.63.429-1.005l-.018-5.067c-.03-.342-.201-.651-.474-.861-.246-.225-.567-.351-.897-.351-.033 0-.066.003-.099.003zm-6.345 7.164c-.105-.123-.153-.282-.135-.441v-3.156c.003-.159.066-.309.174-.423.15-.132.33-.222.525-.261 1.263-.237 2.919-.561 4.215-.747.165-.03.339.003.483.087.156.099.249.276.24.465l-.042 3.063c.009.18-.072.348-.216.453-.153.111-.33.18-.519.207-1.245.252-3.063.588-4.344.828-.036.009-.072.015-.111.015-.096 0-.192-.03-.27-.09zm51.969-5.04c-.033-.006-.033.051-.033.081-.063 2.634-.129 5.079-.153 7.716 0 .048.024.123.078.138 3.18.855 6.315 1.869 9.396 3.045.135.048.135-.057.135-.096.009-.6.039-1.212.009-1.809-.006-.066-.048-.12-.111-.144-2.364-.912-4.779-1.698-7.227-2.358-.045-.015-.075-.06-.078-.111l.033-.789c.003-.027.06-.039.093-.027 2.541.705 5.073 1.539 7.275 2.355.039.015.039-.039.039-.078.027-.675.042-1.353 0-2.031 0-.054-.033-.096-.084-.111-2.256-.822-4.623-1.59-7.131-2.277-.039-.015-.078-.045-.078-.081v-.837c0-.036.057-.054.093-.045 2.454.627 5.148 1.569 7.029 2.259.162.063.258.036.258-.117.006-.684.03-.729-.006-1.41-.006-.087-.012-.174-.096-.207-3.09-1.191-6.24-2.217-9.438-3.072zm-56.814.321c-2.832.723-5.67 1.8-8.511 2.841-.081.045-.135.129-.138.222v6.381l.018 1.437s2.052-.774 2.493-.918c.06-.021.06-.075.06-.135l-.042-2.265c0-.066.006-.156.069-.177l7.068-2.181c.24-.087.45-.237.606-.438.15-.195.228-.435.2250834-.681l-.0750834-2.976c-.036-.348-.228-.66-.516-.855-.27-.192-.591-.294-.918-.294-.111 0-.225.012-.339.039zm-6.279 5.589.006-1.557c0-.078.087-.138.156-.159 1.713-.684 3.459-1.272 5.238-1.755.162-.042.306.138.321.273.036.357.051.72.039 1.08l.003.006c0 .201-.282.429-.471.486l-5.16 1.68c-.009.003-.024.003-.036.003-.045 0-.096-.015-.096-.057z" fill="#fff" fill-rule="evenodd"/></mask><g fill="none" fill-rule="evenodd"><path d="m0 0h360v216h-360z" fill="#fff" fill-rule="nonzero"/><g transform="translate(138 36)"><path d="m80.730725 7.49604156c-4.1923586-1.67528005-8.4941351-3.06661953-12.8758-4.16446753-6.0460288-1.44909052-12.1956128-2.43267451-18.394-2.94199481-3.0296-.26867532-5.775175-.38957922-8.885925-.38957922h-.256975c-3.05665 0-5.802225.1209039-8.84535.38957922-6.1758854.51099665-12.3028645 1.49458128-18.326375 2.94199481-4.38433607 1.1038487-8.69021069 2.49505227-12.889325 4.16446753l-.256975.09403636s.51395 31.15290388.906175 46.57486758c.10432985 4.5435965.93521569 9.0418316 2.46155 13.3262961 1.77435131 4.8726983 4.13585067 9.51422 7.033 13.8233454 3.008905 4.4459994 6.6538442 8.4329121 10.82 11.8351481 1.6380257 1.364044 3.3638715 2.6205286 5.16655 3.7614545 2.826212 1.6901333 5.7735718 3.1718324 8.8183 4.4331424 1.014375.429881 1.879975.81946 2.705 1.088136.8294034.318577 1.6787565.583332 2.5427.792592.8678344-.211162 1.7215663-.475873 2.556225-.792592.797975-.268676 1.6771-.671689 2.705-1.088136 3.0503852-1.258487 6.0024476-2.7402774 8.831825-4.4331424 1.8004026-1.1442273 3.5260397-2.40056 5.16655-3.7614545 4.162719-3.4058199 7.807173-7.3922019 10.82-11.8351481 2.8929021-4.3095258 5.2498755-8.9510777 7.019475-13.8233454 1.5326141-4.2827977 2.3636867-8.7820437 2.46155-13.3262961.392225-15.4219637.906175-46.54800005.906175-46.54800005-.0577274-.04807593-.1213498-.08870015-.18935-.12090389z" fill="url(#a)" fill-rule="nonzero"/><path d="m78.87455 63.7134615c-.3130341 1.4648192-.7203713 2.9081701-1.2195 4.3211539-1.7648202 4.9044973-4.1216487 9.5783405-7.0189 13.9192308-3.0144668 4.4551908-6.6661434 8.4503458-10.84 11.8596153-1.6410535 1.366864-3.3700894 2.6259462-5.1761 3.7692308-2.8299519 1.6962915-5.7829617 3.1811557-8.8346 4.4423077-1.0298.417308-1.897.821154-2.71 1.090385-.8287815.32532-1.6801291.590754-2.5474.79423-.8750627-.191044-1.7318931-.456774-2.56095-.79423-.813-.282693-1.7073-.659616-2.71-1.090385-2.942982-1.27902-5.7910903-2.7635029-8.52295-4.4423077-1.8300267-1.146031-3.585937-2.4049102-5.2574-3.7692308-3.5597-2.9480657-6.736558-6.4773383-9.47675-10.1903846.7448337.978444.5818152.4871347 1.3873109 1.41472 2.1323496 2.4555514 5.4217118 6.0476739 7.9453376 8.1117751 1.6367865 1.3722596 3.3693945 2.552954 5.1792999 3.6905719 2.8314168 1.705956 5.6592315 3.3995951 8.7180516 4.6598561 1.0298.417308 1.91055.821154 2.71 1.090385.8627424.320622 1.7453059.58591 2.64225.79423.8655404-.209692 1.7164635-.474994 2.5474-.79423.813-.269231 1.69375-.673077 2.71-1.090385 3.0544444-1.260313 6.0078496-2.7498756 8.8346-4.4557692 1.8121608-1.1343277 3.5417929-2.393844 5.1761-3.7692308 4.173658-3.4043263 7.4556822-7.5221857 10.4702825-11.9733218l.3155175.127168c2.903475-4.3154081 5.2651359-8.9672072 7.03245-13.8519231 0 0 .69105-1.8980769 1.20595-3.8634616zm-.28455-9.2615384c.0273008.1649179.0273008.333159 0 .4980769h-22.15425v-.4980769zm-39.024-41.9192308v.5653846c-2.61515.0403846-5.02705.1346154-7.6693.3634616-5.9730296.4885345-11.8987248 1.4381973-17.7234 2.8403846-4.21351052 1.0878601-8.35435526 2.4366506-12.39825 4.0384615v-.5519231c4.0449358-1.611587 8.19092185-2.9605779 12.4118-4.0384615 5.8211135-1.3999298 11.7417782-2.3540128 17.70985-2.8538462 2.64225-.2288461 5.05415-.3634615 7.6693-.3634615zm40.06735-3.72884615s-.06775 4.05192305-.17615 9.90769235l-.04065-.1346154c.119888-4.4610368.1433444-7.711483.1479337-8.86166637l.0005911-.1679658c.000075-.02487915.0001393-.04818901.0001944-.06991202l.0003308-.67353276zm-38.98335-7.4576923c2.9268 0 5.56905.13461538 8.49585.40384615 6.0017944.50195617 11.9548594 1.46965254 17.8047 2.89423077 4.2282989 1.06765985 8.3794651 2.41686329 12.42535 4.03846154h-.06775l.2439.10769231v.55192307l-.2439-.12115384c-4.0465547-1.61977378-8.1975963-2.96893673-12.42535-4.03846154-5.8136953-1.41658467-11.7308168-2.37532791-17.6963-2.86730769-2.94035-.26923077-5.5826-.39038462-8.5365-.39038462h-.271c-2.9539.04038462-5.59615.13461538-8.5365.39038462-6.0021275.50659838-11.9551798 1.4787936-17.8047 2.9076923-4.19733921 1.06766517-8.31695895 2.41691507-12.3305 4.03846154l-.17615.08076923v-.59230769l.2439-.09423077c4.01132226-1.62753459 8.13135999-2.97692139 12.3305-4.03846154 5.8266439-1.42321637 11.7574447-2.38647491 17.73695-2.88076923 2.94035-.26923077 5.5826-.39038461 8.5365-.39038461z" fill="#613e18"/><path d="m40.629675 22.6895179v10.1798003h38.895275c.0873667-4.7945336.14905-8.1878003.18505-10.1798003zm15.6570187 20.6336272-.0948437 10.428778h22.75045c.066-2.886.1448-6.837778.2168-10.428778zm-16.7342437 26.4883934c-1.0730606-.0992523-2.9975887-.6683656-5.7735845-1.70734-1.9448056-.7278841-3.9348155-2.4264293-4.0908155-2.5734293h-25.4198c.165.552 2.13261614 6.6247756 4.0108 9.5173077h31.31405zm-23.5624539 16.6254472c1.716 1.872 4.1784039 4.9805143 6.1314039 6.6035143 1.581 1.338 3.252 2.568 4.995 3.687 2.73 1.665 5.58 3.117 8.529 4.353.975.417 1.824.816 2.598 1.074.558.189 1.062.372 1.488.507l.2445642-16.2245143z" fill="#b12b28"/><path d="m39.9759642 75.7770917v10.2419507l-24.4839642.4889576c-1.416-1.626-2.724-3.345-3.909-5.145-.951-1.455-2.36556815-4.1129083-3.18456815-5.5859083zm-14.7052284-21.1905532c1.1850171 5.1045761 2.5465257 8.4858642 4.0845257 10.1438642l-25.4303615.2978973c-.858-3.105-1.65755106-7.2227615-1.78655106-10.4417615zm54.1170642-20.9326923c-.054 2.811-.114 6.2836538-.15 9.0196538h-23.04595v-9.0196538zm-38.6778-21.3010462c1.5909706.0217941 7.8006176.5076212 13.9893784 1.179682l.9763228.107622c4.5490497.5090805 8.9541812 1.1113357 11.3592988 1.6956298 4.236 1.083 8.4915 3.1709662 12.5475 4.8059662l-.0021511-.0019.0038178.2563889c.0077777.497837.0229629 1.0586617.0254938 1.4864041l-.0001605.239107h-38.8674326z" fill="#000"/><path d="m68.2378 71.7769231v.2019231c0 .1480769 0 .1884615-.1355.2288461-.9214483.2191139-1.7649345.684658-2.439 1.3461539-.0517423.0378254-.097426.0832109-.1355.1346153s0 0 0-.0807692 0-.2288461.23035-.3769231c.6832757-.6197063 1.5205157-1.0472103 2.42545-1.2384615.0813 0 .1084 0 .12195-.0942308zm-4.4444-2.5576923c-.7427222.2924433-1.4062846.7534435-1.93765 1.3461538-.3850103.3725794-.6692831.835558-.82655 1.3461539v.175c.186495-.4282463.4479985-.8202196.77235-1.1576923.5163866-.591326 1.166485-1.0526505 1.897-1.3461539.0647218-.0236662.1114162-.0803646.12195-.1480769v-.35c0 .0520422-.0424658.0942308-.09485.0942308zm-4.6883-1.0634616c-1.0103062.6083547-1.8347456 1.4786029-2.3848 2.5173077-.2858716.5395318-.4347211 1.1402851-.4336063 1.75v.1480769c.0291271-.5579963.1623725-1.1057573.3929563-1.6153846.5501769-1.0069964 1.4093361-1.8133891 2.45255-2.301923.0841526-.2234579.1210533-.4617462.1084-.7-.0019838.0980795-.0527257.1888187-.1355.2423076zm-6.19235 1.3461539c-.3832224.3160154-.7047283.6993036-.9485 1.1307692-.5552711.9273338-.7840954 2.0118891-.6504 3.0826923-.002431-.9444766.2452379-1.8729746.71815-2.6923077.2047684-.4264392.495289-.8066897.85365-1.1173077.0840363-.1809869.1212947-.3799433.1084-.5788461.0010422.0566254-.0305176.1088817-.0813.1346154zm-9.8373 8.0769231s0 0 0-.0807693c-.420749-.3272014-.6818068-.8165475-.71815-1.3461538-.0819907.5607432.121003 1.1254148.542 1.5076923.0473177-.0418886.1026067-.0739299.1626-.0942308zm20.60955-19.6942308c-.6337577.2716137-1.1849708.7032081-1.5989 1.2519231-.4423238.4609707-.7593924 1.0261152-.9214 1.6423077v.175c.2126078-.5266056.5202764-1.0101871.90785-1.4269231.4140461-.5573285.9708322-.9942714 1.61245-1.2653846.14905-.0807693.17615-.2423077.17615-.5923077-.0074206.1013981-.0777659.1874117-.17615.2153846zm6.1246 1.0096154c-.7751893.1311806-1.5058674.4502102-2.12735.9288461-.5616797.3875232-1.0254498.8989472-1.355 1.4942308 0 0-.1084.1480769 0 .2019231.3308644-.4878197.7433172-.9157913 1.2195-1.2653846.6283358-.5108434 1.3724403-.8619856 2.168-1.023077.0813 0 .12195-.1211538.1355-.1615384v-.323077s0 .0942308-.0813.0942308zm4.5528 3.0288461s0 .1076923-.09485.0942308c-.8671041.0270079-1.702769.3289022-2.3848.8615385-.1822179.1201466-.3503747.2601149-.50135.4173076-.12195.0807693-.09485.1615385-.0813.175l.1355.1211539.3794-.3230769c.6966805-.5528664 1.5488464-.8773973 2.439-.9288462.06775 0 .12195-.2423077.1084-.4442308zm-27.1813 7.6865385v.0807692c-.033964.4673037-.3681468.8591738-.82655.9692308-.5579995.246847-1.2116324.1234138-1.63955-.3096154-.3239356.4013816-.8498179.5842388-1.355.4711538-.4067147-.0850949-.7598533-.3336017-.9756-.6865384 0-.1884616-.1084-.3769231-.1355-.4307692-.44715 0-.90785.0807692-1.355.0807692v.4038461c.4531093-.00563.90552-.037092 1.355-.0942307.0262157.1472418.0670657.2915377.12195.4307692.2136488.3262745.5422509.5615154.9214.6596154.5025423.1161799 1.0278873-.0612713 1.355-.4576923.4529245.4168246 1.1069361.5373412 1.6802.3096154.420779-.1337537.7198173-.5051111.7588-.9423077 0-.1615385 0-.323077 0-.4846154zm1.15175 11.6576923c-.5979741.3495199-1.3396759.3495199-1.93765 0-.2585578-.1694658-.4798206-.3892841-.6504-.6461539 0 0-.09485-.0942307-.1084-.0807692-.4170054.3728361-.9729377.5536787-1.53115.4980769-.6006767-.0549926-1.1485538-.3639198-1.50405-.8480769-.2563767-.3677564-.3934848-.8045775-.39295-1.2519231-.0423157.554737.1109827 1.1068155.4336 1.5615385.2991503.4764307.7952887.7968153 1.355.875.5783634.0409684 1.1478073-.1589865 1.5718-.5519231 0 0 .0813 0 .1084.0942308.1885605.2457024.407023.4672602.6504.6596154.5918656.3363064 1.3186844.3363064 1.91055 0 .5964526-.4136902.962729-1.0816438.98915-1.8038462-.0392549.6015543-.3873873 1.1406885-.9214 1.4269231zm14.15975 2.8942308c-.4509733.1523928-.8828759.3556426-1.28725.6057692-.5986658.432298-1.0671758 1.0187667-1.355 1.6961538h.06775c.271291-.5858424.6858736-1.0949027 1.20595-1.4807692.3991804-.2543919.8265734-.4621762 1.2737-.6192308 0 0 .0813-.2423077.0813-.376923zm-3.23845-1.8846154c-1.3606128.3260786-2.4918752 1.2609851-3.0623 2.5307692v.1211539h.09485c.6327012-1.0841093 1.661472-1.8843972 2.8726-2.2346154 0 0 .0813-.2423077.0813-.4173077zm-5.6097-.4576923c-.5319528.5224138-.9880079 1.1159456-1.355 1.7634615-.2727691.521411-.3768753 1.1137629-.2981 1.6961539 0 0 0 0 .06775.0807692-.0289995-.4691899.0792337-.9366971.31165-1.3461539.3711431-.6285493.8270299-1.2037457 1.355-1.7096153.0499905-.1750249.0728362-.3565971.06775-.5384616v.0942308zm-4.86445 1.951923c-.6264766.6240792-.8917522 1.5211416-.7046 2.3826924-.0786516-.7436349.1795276-1.4835205.7046-2.0192308.0202762-.1564054.0202762-.3147485 0-.4711539.0150829.0343338.0150829.0733586 0 .1076923zm-2.5203 4.8057693.12195-.0942308c.0813 0 0-.1076923 0-.1211538-.1961648-.3539259-.3377581-.7350933-.42005-1.1307693-.0792224-.331156-.1246188-.6694067-.1355-1.0096154-.0059123.4523516.0395415.9039229.1355 1.3461539.0810623.3670954.2037977.7238655.36585 1.0634615zm2.439 4.6980769c-.368209.3289938-.8877471.4322231-1.355.2692308-.463683-.1564345-.8633131-.4589268-1.1382-.8615385 0 0-.12195 0-.1355 0-.3058564.6412608-.8648787 1.1284298-1.5447 1.3461539-.4558873.0712455-.9196361-.0674662-1.26015-.3769231-.3083013-.2618419-.4823201-.6471234-.47425-1.05 0 1.1038461.1355 1.1711538.47425 1.3461538.3761288.3133078.8697945.4506318 1.355.3769231.6798213-.217724 1.2388436-.7048931 1.5447-1.3461538h.1355c.2756101.401931.6749856.7042305 1.1382.8615384.4696924.1594382.9895418.0509825 1.355-.2826923.3792041-.3977704.5754498-.9339225.542-1.4807692-.047023.4384515-.2601709.8427135-.5962 1.1307692zm-5.2303-2.1.20325-.175s0 0 0-.0807692c-.5995821-.1965414-1.0285366-.7226575-1.09755-1.3461539-.0149798.6728325.3375016 1.3010969.9214 1.6423077zm-39.55245-63.2692308c.05164486-.0523443.05164486-.1361172 0-.1884615-.10863452-.223559-.17303454-.4657674-.1897-.7134615.01439665.3009407.06442467.5991491.14905.8884615zm1.2195 21.3634616s.09485-.148077 0-.2019231c-.13392457-.192003-.25175379-.3946068-.3523-.6057692-.0587117-.1597853-.09075041-.3280272-.09485-.498077-.00030885.3047179.04071015.608088.12195.9019231.08265853.1771978.19234964.3406603.3252.4846154zm5.70455 1.75c-.0201443.4744681-.3087738.8967654-.74525 1.0903846-.4517096.3068907-1.01481407.405036-1.5447.2692308-.36451722-.1219205-.69121049-.3352031-.9485-.6192308-.09485-.1211539-.2168 0-.33875.0673077-.31491578.201232-.64571294.3768054-.98915.525-.67612171.3388844-1.50041036.1255072-1.9241-.4980769-.21525845-.2843669-.33815305-.6271644-.3523-.9826924-.02079795.4718516.09689188.9395376.33875 1.3461539.43998233.624655 1.26462751.8506582 1.96475.5384615.34645537-.1509224.681551-.3263738 1.0027-.525.1084-.0807692.1897-.2288461.2981-.1076923.27013638.2972961.60987553.5238513.98915.6596154.52307859.1487388 1.08579753.05474 1.53115-.2557692.5067031-.2616256.7939183-.8107706.71815-1.3730769zm-1.5447-10.5403846c-.01885382.5193386-.30559356.9924225-.7588 1.251923-.75225198.4711489-1.74644202.2483143-2.2222-.4980769-.09208531-.0695605-.21956469-.0695605-.31165 0-.47363997.3228528-1.03828883.4878418-1.61245.4711539-.56867929-.0301321-1.06693802-.3882214-1.2737-.9153847-.07956231-.1500405-.12577034-.3153034-.1355-.4846153-.01815015.2604816.01877472.5218537.1084.7673076.1955513.548378.69123631.9360506 1.2737.9961539.58675889.0160993 1.16417155-.1484705 1.6531-.4711539.03331199-.0354286.07992513-.0555407.128725-.0555407s.09541301.0201121.128725.0555407c.44210346.8088421 1.45630539 1.1147148 2.2764.6865385.5691-.3769231.79945-.7269231.77235-1.7769231zm-5.0677-2.0057693h.0813s0-.1076923 0-.1884615c-.24814535-.2587732-.39268955-.5986278-.4065-.9557692-.00512548.4088343.10772452.8105735.3252 1.1576923zm8.13 2.6923077c-.5730572.5925728-.9754943 1.327107-1.1653 2.1269231-.1015973.5699246-.1015973 1.1531523 0 1.7230769-.0628606-.4465451-.0628606-.8996088 0-1.3461538.1878191-.7772865.5699765-1.4949412 1.1111-2.0865385 0 0 0-.0807692 0-.175v-.3634615c.0080317.0309035.0080317.0633272 0 .0942307zm5.0948-1.6692308c-1.5607334.9037831-2.3966778 2.6719165-2.10025 4.4423077-.1439984-1.6396238.6800188-3.2139268 2.1138-4.0384615 0 0 0-.35 0-.5519231-.0030493.0448898-.0284707.0852985-.06775.1076923zm2.5745 3.0692308s.1084.1346154.14905.1346154h.14905c.5927725-1.4678996 1.5938155-2.7378812 2.886175-3.6615385 0 0 0-.2153846 0-.2961538v-.2692308c.0010172.0566255-.0305426.1088817-.081325.1346154-1.4522904.9521556-2.5625823 2.3380306-3.1707 3.9576923zm-7.3441-11.4692308c-.4425818.2409975-.8086285.5999922-1.0569 1.0365385-.5668959.8425281-.7942184 1.8660088-.63685 2.8673077-.0138194.0575255-.0138194.1174745 0 .175-.0533856-.9127475.1887856-1.8184988.69105-2.5846154.2173109-.4172494.5514064-.7631883.96205-.9961538v-.5384616zm5.42-1.426923c-.590877.3038781-1.1050233.7364387-1.50405 1.2653846-.499531.6685168-.8505332 1.4347626-1.0298 2.2480769.006159.1109019.0670007.2116428.1626.2692308.2036763-.7296439.543837-1.4146572 1.0027-2.0192308.3456753-.542929.8085032-1.0027353 1.355-1.3461538.12195 0 .1355-.175.1355-.3096154v-.3096154c0 .0807692-.06775.1346154-.1626.175zm6.4498-.148077c-.8115819.0619765-1.5944177.3258475-2.2764.7673077-.7563361.4395524-1.2958568 1.1704594-1.4905 2.0192308-.0036932.1103078.0607538.2116827.1626.2557692.269789-.7507856.7788448-1.3935855 1.44985-1.8307692.6436454-.4562089 1.3952107-.7391044 2.18155-.8211538.1084 0 .09485-.1615385.09485-.2692308v-.3365385c.0083374.0773015-.0449184.1478457-.12195.1615385zm2.5474 3.0288462.20325-.1346154c.7690196-.4971367 1.6306515-.8358773 2.53385-.9961538.09485 0 .1355 0 .1355-.2557693v-.201923s0 0-.0813 0c-1.1230333.2112509-2.1836577.671382-3.10295 1.3461538-.1355.1346154-.25745.2153846-.06775.2288462zm-13.0622-13.2057692c-.833838.5643913-1.5821465 1.2443515-2.2222 2.0192307-.5078658.8679742-.7481456 1.8649442-.69105 2.8673077h.1084c.0529679-.8439329.3135151-1.6620719.7588-2.3826923.626215-.7702686 1.3400837-1.465925 2.12735-2.0730769.0269593-.2055414.0269593-.4136893 0-.6192308.017077.065675.0020151.1355049-.04065.1884616zm7.08665-1.6153846c.0072386.0218596.0072386.045448 0 .0673076-.7647352.4943758-1.4855115 1.0528208-2.15445 1.6692308-.6594723.7123273-1.0642667 1.620717-1.15175 2.5846154 0 0 0 .0673077.0813.0673077h.0813c.1921061-.7741967.5632647-1.4932309 1.084-2.1.6187756-.6181099 1.2947401-1.176985 2.01895-1.6692308 0 0 0-.2153846 0-.2692307v-.323077zm7.24925-.4038462c-1.0837749.3331891-2.0853621.8880318-2.94035 1.6288462-.5587789.6389162-.9209393 1.4239258-1.04335 2.2615384 0 0 .0813 0 .12195.0673077.2010487-.6740498.5583977-1.2918699 1.04335-1.8038461.8485282-.7378682 1.8333673-1.3047971 2.8997-1.6692308.0795286-.0419455.1271661-.1260814.12195-.2153846v-.4442308c-.011715.0819376-.0696506.1499599-.14905.175zm6.1788 2.8673075c-.8774014-.000132-1.7529052.0809881-2.61515.2423079-.5541998.1903265-1.0523161.5140696-1.44985.9423077-.0414051.0459901-.0414051.1155483 0 .1615384l.25745.0673077c.3353392-.2978149.7268102-.5265886 1.15175-.6730769.8638729-.1462742 1.7388248-.2183356 2.61515-.2153846 0 0 .14905-.0673077.14905-.1346154v-.3903848s-.09485 0-.14905 0zm-25.0675 9.6384617c-.20325.6326923-.39295.7-.88075 1.05-.47167031.307798-1.05148148.4054295-1.5989.2692308-.33979934-.1185447-.63994481-.3282067-.8672-.6057692-.03835295-.0192-.08359705-.0192-.12195 0-.33205366.2244231-.69183302.4054006-1.07045.5384615-.68170157.2700617-1.46041556.0215966-1.85635-.5923077-.03728908-.0431237-.06499325-.0935831-.0813-.1480769v-.1346154s0-.1076923 0-.1615385c-.00728033-.0626123-.00728033-.1258492 0-.1884615v.1211539c-.02776757.3922001.04203449.7851628.20325 1.1442307.45283111.5960124 1.23443233.8440605 1.9512.6192308.31381157-.2317708.60423974-.493253.8672-.7807692.03835295-.0192.08359705-.0192.12195 0 .23981959.2944692.55270715.5218035.90785.6596153.54712161.107545 1.11491599.0014772 1.58535-.2961538.29863802-.1720296.53196449-.4369476.66395-.7538462.13253627-.2859217.17956968-.6036609.1355-.9153846v.0942308zm24.3629-3.6480769c-.0928155.0182474-.1878794-.0184805-.2439-.0942308-1.754807-1.4757447-3.9619796-2.3158292-6.2601-2.3826923-6.3588331.1476205-12.6004323 1.7312082-18.25185 4.6307693 0 0-.1084.1480769 0 .1884615.08270305.082682.15134598.1781547.20325.2826923 5.6078922-2.8542179 11.7902818-4.4184796 18.08925-4.5769231 2.3027484.0760516 4.512666.9201061 6.27365 2.3961539.0639744.0847423.164376.1346154.271.1346154.09485 0 .17615-.2019231.20325-.2961539.0341135-.3716649.1113498-.4878847.0772363-.8595496-.0096721.2212502-.2427054.5507294-.3617863.5768573zm-8.98365 9.5711539c-.6430769-.228748-1.3120617-.3779478-1.99185-.4442308-4.8087268.1142852-9.512708 1.4190995-13.6855 3.7961538 0 0-.17615.1615385-.14905.2288462s.09485.2557692.1355.3769231c.03077754-.0456099.07274858-.082674.12195-.1076923 4.1554159-2.3716056 8.8405155-3.6763497 13.6313-3.7961539.6447802.0567893 1.2785809.2017477 1.88345.4307692h.09485v-.4846153h-.09485zm.1084 9.4230769v.0942307h-.20325c-2.4749239-.1251969-4.9533466.1660849-7.33055.8615385-2.5177619.757031-4.9337664 1.8147602-7.19505 3.15-.1626.0942308-.14905.0807692 0 .2288462.0405155.0460411.0767941.0955984.1084.1480769 2.2484317-1.305999 4.6456509-2.3408743 7.14085-3.0826923 2.3629323-.6715213 4.8225036-.9445396 7.27635-.8076923h.14905zm25.16235 21.5788461c-1.0091173.6995498-2.0901427 1.2906834-3.2249 1.7634616l.1626.2826923c1.0743264-.4425542 2.100405-.9928389 3.0623-1.6423077h.1084c1.61245-.4038462 8.13-2.6923077 12.10015-2.7730769 2.4557571-.0551668 4.883788.524684 7.046 1.6826923 1.1117818.646886 2.1133531 1.464721 2.96745 2.4230769.0347605.0639738.0929932.1121842.1626.1346154.0640245.000483.1223742-.0364062.14905-.0942308.2569434-.6697301.3767174-1.3836825.3523-2.1-.0151308.5816812-.1344272 1.1560352-.3523 1.6961539-.0266758.0578245-.0850255.0947138-.14905.0942307-.1084 0-.12195-.1346154-.1626-.175-.8563301-.9411833-1.8580147-1.7409347-2.96745-2.3692307-2.1562659-1.1802556-4.5843483-1.7833132-7.046-1.75-3.9837 0-10.4335 2.3961538-12.04595 2.8h-.14905zm16.9375 11.6038462c-.148562.0948213-.326628.1330707-.50135.1076923-.5117523-.6407518-1.0934395-1.2231562-1.7344-1.7365385-.7851854-.6527151-1.7132852-1.1137355-2.71-1.3461538-1.5348272-.3093009-3.112193-.3502998-4.6612-.1211539-2.9994433.4036402-5.8903013 1.3868834-8.5094 2.8942308-.1355.0942308-.20325.1346154-.14905.2019231.0545547.050526.1003371.1096546.1355.175 2.6189016-1.4788013 5.4978454-2.4474139 8.4823-2.8538462 1.5514955-.2449653 3.1345332-.2130554 4.67475.0942308.9981113.2285712 1.9270747.6900205 2.71 1.3461538.6428844.5152894 1.2329202 1.0924549 1.7615 1.723077.1790306.025083.3612451-.0130275.5149-.1076923.1589927-.3466621.2421239-.7228985.2439-1.1038462-.0145451.2533966-.0938207.4989365-.23035.7134615zm-6.3956 11.2538461c-.06775 0-.2168 0-.271 0-.4345855-.4441734-.9266993-.8289566-1.4634-1.1442307-1.3777784-.6694542-2.9245095-.9177517-4.4444-.7134616-2.2309714.3504313-4.3294943 1.2790828-6.08395 2.6923077-.1084.0807693-.1626.2153846-.1084.2557693l.14905.1211538c1.7619984-1.4009638 3.8571079-2.3281049 6.08395-2.6923077 1.5198354-.2002418 3.0653905.0478668 4.4444.7134615.5393375.3168141 1.0318311.7064246 1.4634 1.1576924.0856057.041061.1853943.041061.271 0 .3732877-.3438458.5594612-.8437326.50135-1.3461539-.032585.4077765-.2276929.7857531-.542 1.05z" fill="#432918"/><path d="m54.40325 62.3807692.36585-.0942307 2.1409-.4711539c.0813 0 .14905-.1211538.1626-.1615384.2666042-1.073341.7255961-2.0902105 1.355-3.0019231.4995774-.6634786 1.2116169-1.1382376 2.01895-1.3461539 1.0693796-.4331999 2.282677-.3331687 3.26555.2692308.0895819.0893055.0895819.2337714 0 .3230769 0 0 0 0-.0813.0807693-.6309952.257085-1.179216.6806952-1.58535 1.225-.4476001.4636257-.7774123 1.0266455-.96205 1.6423076v.1884616c0 .0269231 1.1653 0 1.58535.0942308.0813 0 .1084 0 .1626-.1346154.3449206-1.1336521 1.0132632-2.1436489 1.9241-2.9076923.9605236-.743098 2.2293161-.9649476 3.3875-.5923077.7237251.1721027 1.3250984.6699754 1.626 1.3461538v.1615385c-.7812348.1488017-1.5152993.4811283-2.1409.9692307-.557952.3749265-1.0215806.8723765-1.355 1.4538462 0 0-.12195.1615385.0813.2153846.5419866.1195464 1.0759803.2724045 1.5989.4576923h.2439c.6207251-.9405265 1.5983504-1.5912592 2.71-1.8038461 1.626-.2423077 3.1707.4576923 3.42815 1.5346154 0 .1480769.0813.3365384 0 .3230769-.8892022.0449343-1.7420007.3649993-2.439.9153846-.1625531.1094652-.3165573.2309642-.4607.3634615-.12195.0942308-.09485.1615385-.0813.175.36585.3634616 1.5718 1.2384616 1.66665 2.4634616.0526184.7573027-.0678184 1.516623-.3523 2.2211538-.0266758.0578246-.0850255.0947138-.14905.0942355-.0668854-.0214461-.1212098-.0705095-.14905-.1346201-.8514015-.9574251-1.8535824-1.7712116-2.96745-2.4096154-2.1543458-1.2182546-4.5942791-1.8497959-7.0731-1.8307692-4.065 0-10.50125 2.3692308-12.1137 2.7730769h-.09485s.8943-.9153846 4.2818-4.4019231zm10.3251 8.0769231c-.8455438.3501205-1.5407787.9836555-1.96475 1.7903846 0 0-.09485.2153846-.1626.1615385-.39295 0-1.0569-.1346154-1.4363-.1615385s-.1084-.175-.1084-.2019231c.1637832-.5107817.4524183-.9732828.8401-1.3461538.5293167-.5949953 1.1934705-1.0564064 1.93765-1.3461538 0 0 .0813 0 .0813-.0942308-.49802-.6025286-1.2344918-.9609947-2.01895-.9826923-1.0092579-.061134-1.9963038.3114948-2.71 1.0230769-.8272254.8749475-1.3414979 1.9961223-1.4634 3.1903846 0 .1076923-.0813.1480769-.14905.1480769-.402815.0692473-.8107062.1052676-1.2195.1076923 0 0 0-.0807692 0-.1480769.0142037-.6093832.1670737-1.2076669.44715-1.75.5414809-1.036873 1.3624677-1.903768 2.37125-2.5038461.1626-.1076923.17615-.3365385.12195-.3634616-1.2286769-.5121867-2.6343298-.3755749-3.7398.3634616-.7380426.363249-1.3476032.9406635-1.74795 1.6557692-.4107415 1.0708257-.6618094 2.1955228-.74525 3.3384615-.0290933.0710946-.0887832.1254531-.1626.148077-.4914573.0922611-.9758981.218203-1.44985.376923-.0497311-.0058716-.0889398-.0448243-.09485-.0942307-.1602046-1.0872467.0649215-2.1960112.63685-3.1365385.2471663-.4291328.5681994-.8118574.9485-1.1307692.0298382-.0279754.0467497-.0669327.0467497-.1076923 0-.0407597-.0169115-.079717-.0467497-.1076923-.0269106-.0432436-.0714203-.072723-.12195-.0807693-.969174-.162365-1.9650404.0136278-2.8184.498077-1.0771375.5945229-1.8025594 1.6655422-1.9512 2.8807692-.1041058.8559728-.0443391 1.7237836.17615 2.5576923 0 0 0 .1076923-.06775.1346154l-1.5447.7673077c-.162793-.64355-.5773729-1.1959448-1.15175-1.5346154-1.086-.472763-2.3539828-.0092867-2.8726 1.05-.3105249.699985-.0842813 1.5203832.542 1.9653846 0 0 .0813.0807692 0 .1076923-.3794.2153846-.39295.2557692-.69105.7-.2962427.6332452-.2070752 1.3784047.23035 1.925.3428404.4890085.8809254.80779 1.47695.875.5683193.0513165 1.1325961-.1339229 1.55825-.5115385 0 0 .0813 0 .1084.0807693.1639818.2569973.3754757.4808135.6233.6596154.6114181.3353635 1.3533319.3353635 1.96475 0 .6449424-.3540382 1.0053388-1.0647815.90785-1.7903847.0051362-.4256712-.1663954-.8346593-.47425-1.1307692 0 0 0-.1076923.14905-.2019231 2.6128424-1.4814445 5.4878845-2.4502921 8.46875-2.8538461 1.547434-.2380151 3.1247933-.2061272 4.6612.0942308.9981113.2285711 1.9270747.6900205 2.71 1.3461538.646064.511737 1.2364462 1.0892414 1.7615 1.7230769.1792348.0395155.3669154.0002618.5149-.1076923.3050394-.7093743.3050394-1.5117795 0-2.2211538-.3532931-.9630947-.9233389-1.8333003-1.66665-2.5442308 0 0 0 0 0-.0807692 0-.0807693.06775-.2019231.23035-.3365385.6710765-.665447 1.5157539-1.1316486 2.439-1.3461538.1084 0 .1626-.0942308.0813-.2288462-.6844088-1.2369191-2.1823166-1.7827577-3.50945-1.2788461zm16.40905-62.83846153s-.5149 31.19038463-.90785 46.65769233c-.0992097 4.5535291-.9317847 9.0618937-2.4661 13.3538461-1.7730136 4.8780426-4.1343677 9.5247173-7.03245 13.8384616-3.018396 4.4521313-6.6695865 8.4467545-10.84 11.8596154-1.6402139 1.367927-3.3693217 2.6270615-5.1761 3.7692307-2.8316834 1.7016131-5.7896074 3.1866701-8.84815 4.4423081-1.0027.430769-1.897.834615-2.71 1.103846-.8364533.312978-1.6917687.573742-2.56095.780769-.8652745-.205111-1.716204-.465918-2.5474-.780769-.813-.269231-1.6802-.673077-2.71-1.103846-3.0528878-1.258454-6.006097-2.7434185-8.8346-4.4423081-1.8090545-1.1388576-3.5383796-2.3981504-5.1761-3.7692307-4.1738566-3.4092696-7.8255332-7.4044246-10.84-11.8596154-2.90245215-4.3132763-5.2683478-8.9599348-7.046-13.8384616-1.55046239-4.2900614-2.40571832-8.7974143-2.53385-13.3538461-.39295-15.4673077-.90785-46.67115387-.90785-46.67115387l.25745-.09423077c4.20687608-1.67286651 8.5207098-3.06694619 12.91315-4.17307692 6.0569917-1.45313859 12.218025-2.43876916 18.428-2.94807692 3.0352-.26923077 5.78585-.39038462 8.84815-.39038462h.20325c3.0623 0 5.81295.12115385 8.8617.39038462 6.2098445.51037323 12.3707955 1.49599064 18.428 2.94807692 4.3880038 1.10616936 8.6973281 2.50025456 12.8996 4.17307692l.2439.10769231zm-77.235 56.79423073h24.661c-2.2955129-2.4650722-3.5893867-5.6882317-3.6314-9.0461538v-.3769231h-22.4659c.1329364 3.1863201.6284057 6.3474598 1.47695 9.4230769zm35.65005 22.4807693h-23.035c1.7092776 1.8576523 3.5475514 3.5939607 5.5013 5.1961538 1.6102448 1.3268825 3.3077606 2.5456118 5.08125 3.6480769 2.7205882 1.6430719 5.5603639 3.0829372 8.49585 4.3076925.9756.417308 1.8157.807692 2.58805 1.063461l1.47695.498077v-14.7134612zm0-10.6615385h-30.60945c.813 1.4673077 1.6802 2.9076923 2.6287 4.3480769 1.1882676 1.7827674 2.4918103 3.4869941 3.9024 5.1019231h24.119zm0-6.4211538c-3.4476743-.3030171-6.7195694-1.6464461-9.3766-3.85l-.4878-.4307693h-25.4198c.1626.5519231.3523 1.1038462.542 1.6423077.96319915 2.7048268 2.12250417 5.3367245 3.4688 7.875h31.31405zm0-57.0903847c-2.6016 0-5.0135.1346154-7.65575.3634616-5.9726693.4987813-11.8979184 1.4528731-17.7234 2.8538461-4.22093162 1.0777017-8.36692944 2.4266964-12.4118 4.0384616.17615 10.0288461.44715 24.5807692.6775 33.775h22.53365v-8.3730769h-.20325c-2.4774582-.1181625-4.9569549.1869053-7.33055.901923-2.5208386.742472-4.9414648 1.7866715-7.2086 3.1096154-.14905.0942308-.1355.0807692 0 .2288462.2780716.3442637.4894169.7368079.6233 1.1576923.1180005.5971897-.1819811 1.1987551-.7317 1.4673077-.44613721.3080137-1.00570066.4064049-1.53115.2692307-.37516124-.1362228-.71039523-.3628787-.9756-.6596153-.09485-.1211539-.1897 0-.2981.1076923-.31955886.2013659-.65486848.3769294-1.0027.525-.6924418.3188208-1.51534876.0974052-1.9512-.525-.4539264-.6025279-.4539264-1.4301645 0-2.0326923.20325-.2153847.55555-.3769231.79945-.6057693.2439-.2288461.1084-.1480769 0-.2019231-.13907151-.2056167-.25280139-.427072-.33875-.6596153-.21415882-.6658854-.0121839-1.3945847.5149-1.8576923.54529022-.3820138 1.25669262-.4387608 1.85635-.148077.3794.1615385.6775.7.90785 1.0365385 0 0 .12195.1211538.1897 0l.5962-.35c.0813 0 0-.2153846 0-.2961539-.7588-1.75-.90785-2.9884615-.2168-4.2673076.42207875-.8174098 1.17705164-1.4154842 2.07315-1.6423077.5418341-.1605809 1.1237127-.1223608 1.63955.1076923v.1615384c-.5703967.5945037-.9724177 1.3282784-1.1653 2.1269231-.1379488.697458-.1054215 1.4176195.09485 2.1 0 .1211539.1084.1615385.20325.1346154s1.0569-.3903846 1.355-.4711539c.1084 0 0-.1884615 0-.2961538-.3148688-1.1213506-.2674742-2.3126067.1355-3.4057692.7397161-1.4800906 2.2958105-2.3801215 3.9566-2.2884616.271 0 .66395.2692308.4336.4307693-1.5518357.9118462-2.3847502 2.673571-2.10025 4.4423077.003078.0385134.022664.0738566.0537749.0970374s.0707473.0319645.1088251.0241164c.55555-.1615385 1.15175-.3096154 1.69375-.4846154.09485 0 0-.175.0813-.2692308.010899-1.3722648.4884125-2.7005737 1.355-3.7692307.9736012-1.0957462 2.4084685-1.673921 3.8753-1.5615385.2774505.0631207.5311772.2031597.7317.4038462.0610619.0844674.0610619.1982248 0 .2826923-1.4393099.9417434-2.5401504 2.3135244-3.1436 3.9173077 0 0 0 .1346154.12195.1211538.8401 0 1.72085-.175 2.56095-.2692308.12195 0 .1355 0 .14905-.0942307.319578-.9896064.9885067-1.8310656 1.88345-2.3692308l.1355-.1076923v-4.0384615h-.09485c-.6384209-.2287277-1.302922-.3779426-1.9783-.4442308-4.7768751.1078159-9.451826 1.3938235-13.6042 3.7423077 0 0-.1897.175-.1626.2423077.52845 1.225.2168 1.9519231-.4878 2.4096154-.37686263.2338489-.8321158.3085131-1.26463723.2074077-.43252143-.1011053-.8064987-.3696087-1.03886277-.7458693-.03331199-.0354286-.07992513-.0555407-.128725-.0555407s-.09541301.0201121-.128725.0555407c-.47146778.3153647-1.03080877.4754786-1.5989.4576923-.56924329-.0260086-1.07152164-.3779343-1.28725-.901923-.15423013-.4551658-.11938942-.9526423.09680247-1.3822033.21619188-.4295609.59588395-.7557374 1.05494753-.9062583.09485 0 .0813-.1076923 0-.175-.26828126-.3085833-.4019179-.7105518-.37141134-1.117176s.22264792-.7844696.53401134-1.0501317l.1626-.1211538c.8046372-.4709358 1.84114121-.2059741 2.31705.5923077.06782326.1146743.12237013.2366035.1626.3634615 0 .0807692 0 0 .12195 0 .32429998-.0513407.63650702-.160812.9214-.3230769.1084 0 .23035-.4307692.23035-.5384616 0-2.0730769 0-3.3788461 1.355-4.725.60975-.5788461 2.5745-1.05 3.07585-.4038461.0174999.0153327.0275251.0373961.0275251.0605769s-.0100252.0452443-.0275251.0605769c-.4372802.2480057-.8016433.6053492-1.0569 1.0365385-.5805133.8569691-.808421 1.9023543-.63685 2.9211538 0 0 0 .1884616 0 .1615385.5962-.1884615 1.17885-.4038461 1.7344-.6326923 0 0 0-.1346154 0-.2019231-.08485-1.4051838.337989-2.7943071 1.1924-3.9173077.90785-.9961538 3.15715-1.9923077 4.2547-1.05.09485.0942308 0 .2153846-.12195.2826923-.5825819.299052-1.0879716.727441-1.47695 1.2519231-.5178652.6609363-.8791172 1.4293367-1.0569 2.2480769 0 .0807693.1084.2826923.1897.2692308.4878-.1076923 1.355-.2153846 1.88345-.3769231.25745-.0942307.1897-.1480769.23035-.4038461.1753534-2.1757008 1.8811399-3.9211905 4.065-4.1596154.7488909-.1415353 1.523997-.0227011 2.1951.3365385.172198.1120585.3273419.2480564.4607.4038461.0653863.0677082.0653863.1745995 0 .2423077-.8025937.0647013-1.575997.3285337-2.2493.7673077-.76809.4584642-1.3084407 1.2148966-1.4905 2.0865385 0 .0942307 0 .2423076.14905.2423076.63685 0 1.42275 0 2.04605-.0673076.0817966-.002429.1528056-.0566947.17615-.1346154.4490655-1.2336898 1.4509155-2.1891868 2.71-2.5846154 1.4162815-.5098148 3.0016125-.158069 4.065.9019231.1355.175.1084.2288461 0 .2423077-1.1258839.2020078-2.1885444.6630222-3.10295 1.3461538-.12195.1211538-.2439.2019231 0 .2153846h12.7912zm10.58255 54.0884616c-1.0118756.7325427-2.1025714 1.3510835-3.252 1.8442308l.14905.2961538c.1233832.2792012.174617.5845974.14905.8884615-.0082172.4619684-.3232158.8627539-.77235.9826923-.5905127.2092764-1.2495281.0626207-1.69375-.376923-.3239356.4013816-.8498179.5842387-1.355.4711538-.4043457-.0920635-.7496302-.3517865-.9485-.7134615-.06775-.2019231-.1084-.3769231-.1355-.4442308-.4607 0-.90785.0942308-1.355.1076923v31.9307694c.50135-.134616 1.2195-.390385 2.0596-.673077s1.61245-.646154 2.58805-1.063462c2.9354861-1.2247547 5.7752618-2.6646201 8.49585-4.3076919 1.7363053-1.1064331 3.3975051-2.3250873 4.97285-3.6480769 4.0350413-3.3112921 7.5634168-7.1884798 10.47415-11.5096154 2.7965707-4.1992885 5.0714354-8.7193148 6.775-13.4615385 1.4264969-4.0378173 2.2216285-8.268993 2.3577-12.5461538h-22.18135v.7538461c-.0949153 4.620966-2.4579251 8.9039223-6.32785 11.4692308zm28.82085-23.1538462h-22.4659v9.7461539h22.23555c.0813-2.8538462.14905-6.1923077.2168-9.7596154zm.20325-9.6653846h-22.64205v8.2923077h22.47945c0-2.6923077.09485-5.5192308.14905-8.3057692zm.1897-10.7692308h-38.3736v9.423077h38.19745c0-3.2846154.1084-6.5019231.1626-9.423077zm0-3.1365384c-4.0389521-1.627875-8.1860475-2.9772268-12.4118-4.0384616-5.8211356-1.4443001-11.7469722-2.4344935-17.7234-2.9615384-2.8455-.2423077-5.42-.3365385-8.2384-.3769231v9.2346154h38.38715c0-.6596154 0-1.3461539 0-1.9384615zm.1897-11.06538463-.2439-.12115385c-4.043425-1.61570896-8.1896855-2.96478915-12.4118-4.03846154-5.8057862-1.42160972-11.7128851-2.39819862-17.6692-2.92115384-2.9268-.25576923-5.56905-.35-8.52295-.37692308h-.2439c-2.94035 0-5.5826.12115385-8.5094.37692308-5.9726693.49878135-11.8979184 1.45287307-17.7234 2.85384615-4.22093162 1.07770164-8.36692944 2.42669636-12.4118 4.03846154l-.2439.10769231s.06775 4.03846156.1626 9.82692306h.0813c4.04487056-1.6117652 8.19086838-2.9607599 12.4118-4.0384615 5.8237107-1.4235462 11.748973-2.4001423 17.7234-2.9211539 2.9268-.2557692 5.5826-.4173077 8.52295-.4576923h.1897c2.9539 0 5.5826.2019231 8.5094.4576923 5.9680718.4998334 11.8887365 1.4539164 17.70985 2.8538462 4.2221145 1.0736724 8.368375 2.4227526 12.4118 4.0384615h.0813c.1084-5.8153846.1626-9.81346152.1626-9.81346152zm-20.77215 74.34807693c-.6302992.4399671-1.1421353 1.0270473-1.4905 1.7096154 0 0 0 .1615384-.12195.1346154l-.9214-.2826923s0-.0942308 0-.1211539c.6150817-1.1947809 1.7062371-2.0786086 3.0081-2.4365385.06775 0 0-.0807692 0-.1211538-.47425-1.1576923-2.8726-1.05-4.065-.3096154-1.0842599.711603-1.8509667 1.810767-2.1409 3.0692308v.175c-.3270854.1075829-.6624193.1886181-1.0027.2423077-.0545229-.0068227-.0952808-.0530991-.09485-.1076923-.0871644-.578175.0174733-1.168826.2981-1.6826923.3706644-.6451054.8263559-1.2381641 1.355-1.7634616.0364162-.0354475.0569377-.0839655.0569377-.1346154 0-.0506498-.0205215-.0991678-.0569377-.1346153-.6852271-.4028906-1.5369729-.4028906-2.2222 0-.972603.5105498-1.7101124 1.373394-2.0596 2.4096153-.2167012.8070432-.2167012 1.6564184 0 2.4634616v.1211538c-.33875.1346154-.5962.2826923-.93495.4173077 0 0-.09485 0-.1084 0-.5611764-1.058957-.3513916-2.35881.5149-3.1903846 0-.0673077.1084-.1480769 0-.2019231-.861224-.1339644-1.7312944.1812838-2.3035.8346154-.6637997.790786-.8547126 1.8723981-.50135 2.8403846.0789934.39235.2208108.7695756.42005 1.1173077 0 0 .1355.0942308 0 .1211539l-.6504.4980769s-.06775 0-.0813 0c-.2657806-.494439-.7194979-.862798-1.26015-1.0230769-.4867597-.1099165-.9964688.0318703-1.355.376923-.6133856.6097436-.6133856 1.5979488 0 2.2076923.1861521.1749075.4079572.3080398.6504.3903847 0 0 .0813 0 0 .0807692-.3463495.2338074-.630066.5480168-.82655.9153846-.2398574.6036516-.0961283 1.2911627.36585 1.75.3461183.2995172.8051138.4368072 1.26015.3769231.6823039-.2133582 1.2428772-.7018789 1.5447-1.3461539h.1355c.2812353.4022155.684932.704191 1.15175.8615385.4696924.1594381.9895418.0509825 1.355-.2826923.5827356-.4015973.8077911-1.150611.542-1.8038462-.2144173-.3752614-.5164848-.6938242-.88075-.9288461 0 0 0-.1480769.1084-.2288462 1.752417-1.416524 3.8518737-2.3455887 6.08395-2.6923077 1.5154198-.1991512 3.0563291.0489682 4.43085.7134616.5467349.3119467 1.0443663.7020101 1.47695 1.1576923 0 0 .2168.0807692.271 0 .6817136-.6165016.7476926-1.6593136.14905-2.3557692-.2467933-.2951271-.5509551-.5377837-.8943-.7134616.2878242-.6773871.7563342-1.2638558 1.355-1.6961538.4039206-.2544844.8358096-.4622444 1.28725-.6192308.0813 0 .0813-.0807692 0-.1884615-.55555-1.2653847-2.71-1.3461539-3.794-.6461539zm-26.32765-64.925c1.0387552.0967785 1.9293482.7773776 2.28995 1.75 0 0-.06775.1211538-.1355.1211538-.8760211.0042824-1.7503781.0762947-2.61515.2153847-.5421711.2140043-1.0352969.5345038-1.44985.9423076-.0233331.0204436-.0367001.0498615-.0367001.0807693 0 .0309077.013367.0603256.0367001.0807692 1.034428.2068505 1.9802155.7236376 2.71 1.4807692.8313112.7207536 1.1736218 1.8508516.88075 2.9076923-.0378065.1132754-.1212197.2058933-.23035.2557693-.106624 0-.2070256-.0498731-.271-.1346154-.9179296-.8012777-1.986287-1.4143176-3.1436-1.8038462-.9994559-.3796719-2.0600246-.5758049-3.13005-.5788461-6.3435223.1528103-12.5697641 1.7314253-18.2112 4.6173077 0 0-.1084.1480769 0 .1884615.31862068.3723014.46164376.8622646.39295 1.3461539-.20325.6326923-.39295.6865384-.88075 1.05-.7358837.5787945-1.80288481.4650054-2.39835-.2557693-.02991737-.0255086-.05316453-.0578422-.06775-.0942307-.03835295-.0192-.08359705-.0192-.12195 0-.33164381.2286081-.69138525.4140905-1.07045.551923-.68125522.2816993-1.4675992.0307996-1.85635-.5923077-.22966925-.4492971-.26865815-.9712575-.10825936-1.4493124.1603988-.4780548.50682416-.8723825.96190936-1.0949183.05164486-.0523443.05164486-.1361172 0-.1884616h.0813c-.41597442-.7438219-.14969362-1.6817449.5962-2.1.6775-.3903846 2.18155-.6461538 2.58805.6461539.00634685.0290542.02450141.0542092.05016269.0695054.02566127.0152963.05654601.0193728.08533731.0112638.3417471-.1102113.67657472-.2405709 1.0027-.3903846 0 0 .1084-.2019231.0813-.35-.4200158-1.6625601-.10971956-3.4241056.85365-4.8461538 1.42275-1.6019231 3.10295-2.3288462 4.878-1.6153847.0813 0 0 .1615385 0 .2153847-.7046.7134615-1.6802 1.1846153-2.1951 2.0192307-.5363058.8128108-.827771 1.7608939-.8401 2.7326923h.17615c.88075-.2961538 2.0054-.6730769 3.07585-1.0096154 0 0 .20325 0 .20325-.0942307-.0268846-.5949808.0140251-1.1910739.12195-1.7769231.264252-1.6314325 1.3470282-3.0166593 2.8726-3.675 1.1042936-.4645279 2.3509564-.4645279 3.45525 0 .06775 0 .1084.175 0 .2153846-.7632762.5056389-1.4797364 1.0777681-2.1409 1.7096154-.6501052.6996687-1.0459871 1.5952496-1.12465 2.5442308 0 0 0 .0807692 0 .0673077.96205-.2288462 1.9512-.4038462 2.94035-.5384616.0824491-.0053642.150065-.0669407.1626-.1480769.14905-.9019231.8943-3.4192308 2.12735-4.2403846 1.3075734-.9237172 2.9598983-1.2244193 4.51215-.8211539.3467852.1709476.6449298.4254929.8672.7403847 0 0 0 .1884615-.12195.2153846-1.0807221.3596737-2.0797666.9268293-2.94035 1.6692307-.5315275.6106642-.866628 1.3655793-.96205 2.1673077 0 0 .09485.0673077.14905.0673077h2.5745c.0640245.0004831.1223742-.0364062.14905-.0942307.428701-1.0204919 1.1994417-1.862296 2.18155-2.3826924.9393037-.4146469 1.9742933-.5681839 2.99455-.4442307z" fill="url(#b)" fill-rule="nonzero"/><g fill="#000"><path d="m48.27865 66.7888462c2.8937847-1.6893913 5.1077363-4.3361339 6.2601-7.4838462.3861431-1.0656625.5922121-2.1882307.60975-3.3216346v-22.3295192h-28.9699s-.06775 0-.06775.0813461v21.4618269c.0663432 3.8864946 1.8167148 7.552488 4.7967 10.04625 2.7421191 2.3387139 6.2207045 3.6349225 9.82375 3.660577 2.6581096-.0271427 5.2618251-.756784 7.54735-2.115zm-16.89685-2.1285577c-2.8479452-2.4038014-4.5138282-5.9254098-4.56635-9.653077v-20.6348077s0-.0813461.06775-.0813461h27.5336c.0257263-.01221.0555737-.01221.0813 0v21.4347115c-.0165481 1.0869746-.2134448 2.1636485-.58265 3.1860577-1.0802155 3.0550864-3.2004012 5.6324304-5.9891 7.2804808-2.1710368 1.3183008-4.6556806 2.0299397-7.19505 2.0607692-3.4440883-.0483585-6.7584708-1.3219962-9.3495-3.5927884z" fill-rule="nonzero"/><g fill-rule="nonzero" transform="translate(3.349428 16.611538)"><path d="m62.381622 54.0480769c-.5859506.0446574-1.137483.2924178-1.55825.7-.4383512.343353-.8102437.7629917-1.09755 1.2384616 0 .0807692-.20325.3365384-.39295.2961538-.6546141-.1077501-1.3153079-.1751865-1.9783-.2019231 0 0-.39295-.0942307-.31165-.4442307.0599752-.6240585.2999217-1.2176715.69105-1.7096154.5067865-.6455217 1.1682934-1.1546112 1.9241-1.4807693.271-.1346153-.9485-.4980769-1.355-.4711538-.6204277.0260058-1.2152605.2529304-1.69375.6461538-.98915.6596154-1.355 2.4096154-1.5989 3.3384616-.0385436.1311285-.1324761.2391824-.25745.2961538-.7920473.2047079-1.6070393.3087439-2.42545.3096154-.146486-1.0047801.0239241-2.0299709.4878-2.9346154.3735337-.6025654.8451609-1.1393487 1.39565-1.5884615.2033529-.1644674.4159815-.3172796.63685-.4576923.17615-.1211539-.3794-.2826923-.7588-.2557692-1.03189.1175019-1.9711725.6472592-2.6016 1.4673076-.8085655 1.2262649-1.2242846 2.6670895-1.1924 4.1326924 0 0 0 .175-.1626.2423076-.1626.0673077-1.0298.1884616-1.4905.35-.4607.1615385-.9214.4307693-1.07045.35-.14905-.0807692-.1626-.3634615-.20325-.5923076-.0879419-.5258832-.0879419-1.0625784 0-1.5884616.1781569-.9371923.6036806-1.8105571 1.23305-2.5307692.1897-.1615385-1.626-.2961539-2.5745 1.3461538-.4180625.6315464-.6653866 1.3594028-.71815 2.1134616-.0114404.6813153.0939484 1.3595939.31165 2.0057692 0 .1884615-.09485.2288462-.09485.2288462l-.3252.175c-.60975.35-1.5176.7538461-2.0325 1.0096153-.2168-.6057692-.2439-1.0230769-.8401-1.4403846-.4953577-.2946621-1.098828-.3491649-1.63955-.1480769-.4855765.2168496-.7983392.6960969-.79945 1.225.0561206.533202.3305193 1.0200008.7588 1.3461538l-.4336.3769231c-.502095.4150943-.5912343 1.1471686-.20325 1.6692308l.0813.1211538c.4619644.5521031 1.2787588.6468724 1.85635.2153847.2877002-.1552056.5091113-.4086442.6233-.7134616.1084.2961539.3523 1.1846154 1.23305 1.3461539.3689779.1135725.7702052.0487987 1.084-.175.5195299-.3817991.6953742-1.074949.42005-1.6557693-.1316886-.334448-.357473-.6241822-.6504-.8346154 1.8133224-1.0998851 3.7567151-1.9725458 5.78585-2.5980769 1.8371881-.5513905 3.7447396-.8370153 5.6639-.8480769 1.5810083-.054687 3.1493831.2977484 4.5528 1.0230769 1.022504.6548423 1.9366851 1.4631517 2.71 2.3961539.17615-.0807693.1084-.5788462.1084-.6865385-.2091225-1.4089159-.9384599-2.6901197-2.04605-3.5942308-.17615-.1615384-.06775-.2153846 0-.2692307.6797828-.8665325 1.6350551-1.4786606 2.71-1.7365385.0813-.1211538-.52845-1.0096154-1.7615-1.0096154z"/><path d="m68.750122 43.8846154h-.1355c-.6936179-.0135856-1.3762462.1734963-1.96475.5384615-.5398931.3515524-1.0011374.8097855-1.355 1.3461539-.0884685.1238355-.2494544.1734705-.39295.1211538-.63685-.2692308-1.9241-.5653846-2.71-.7807692-.0567956-.0409365-.0917128-.1053593-.09485-.175.2734346-.6521687.663667-1.2496593 1.15175-1.7634616 1.58535-1.601923 2.6016-1.1038461 2.42545-1.3461538-.8612692-.9926368-2.3428313-1.1678617-3.4146-.4038462-1.026267.7570473-1.7851432 1.8172499-2.168 3.0288462-.0551825.1078661-.1186014.2113741-.1897.3096154-.0695013.0705599-.1595567.117648-.25745.1346154-.50135 0-1.01625 0-1.5176 0h-.88075c-.4336 0-.1626-1.2519231.542-2.3423077.4335337-.6464845 1.0804245-1.1225345 1.82925-1.3461539.20325-.0942307-.28455-.4980769-1.47695-.4173077-1.0341343.1163113-1.9577417.6966171-2.50675 1.575-.6936531.7456185-1.138503 1.6859285-1.2737 2.6923077-.0484019.2858092-.2602137.5172811-.542.5923077l-2.71.5788462-.6233.1480769-.3523.4711538c-.50271.613966-1.0459051 1.1940885-1.626 1.7365385l-.52845.4576923.813-.2423077c1.355-.4173077 2.8184-.8480769 3.2249-.9557692 2.2987436-.6659122 4.6787264-1.0146904 7.0731-1.0365385 1.0682351.0150773 2.1333435.1186414 3.18425.3096154 1.376273.2392195 2.6897642.7520286 3.86175 1.5076923.7278258.4704806 1.4206619.9923387 2.07315 1.5615385.1699621.1770783.3665091.326932.58265.4442308.20325 0 .17615-.1076924.20325-.323077.2036913-1.2469823-.4038711-2.4865097-1.5176-3.0961538 0 0-.3794-.3096154-.28455-.4846154.656086-.808731 1.5681708-1.3732834 2.58805-1.6019231.1897 0 .58265 0 .5149-.1480769s-.06775-.9019231-1.5447-1.0903846z"/><path d="m20.552772 25.2538462c-.2263024.3440497-.4083834.7148789-.542 1.1038461 0 0-.90785 0-1.82925.1076923s-2.10025.3096154-2.10025.3096154v-.0942308c-.0011426-.6891321.1662582-1.3682228.4878-1.9788461.6619099-1.021951 1.4854989-1.9310756 2.439-2.6923077l.1355-.0942308c.17615-.1211538.17615-.1211538.17615-.2019231-.221368-.078322-.4566272-.1104016-.69105-.0942307-1.127335.1653627-2.1392004.7772598-2.80485 1.6961538-.8384169 1.077625-1.248381 2.4240702-1.15175 3.7826923-.28455.0942308-2.5745.8346154-2.981.9288462-.5857212-1.9985122.1980147-4.1437986 1.93765-5.3038462-1.3837033-.0041066-2.6540211.7593403-3.29265 1.9788462-.41867398 1.2884119-.38041676 2.680435.1084 3.9442307-.73170002.2288462-2.71000002 1.0096154-2.71000002 1.0096154-.36429936-.7240042-.50120226-1.540059-.39295-2.3423077.0237071-1.0647163.45495423-2.0804365 1.20595-2.8403846-.9214-.4442307-2.71.7807693-3.04875 2.5846154-.05860004 1.2016361.2230571 2.3955277.813 3.4461539-.50135.3634615-1.355.9288461-1.6531 1.1307692-.0813-.0942308-.3523-1.05-.8672-1.3461539-.4065474-.2836452-.9484526-.2836452-1.355 0-.38008408.3538918-.52231058.8929174-.36585 1.3865385.1355.3634615.63685.7807692.69105 1.0365385-.2340528.1890056-.48855274.3515446-.7588.4846153-.36310231.1788188-.62657636.5097153-.71815.9019231-.06641908.3177128.01304772.6483076.2168.9019231.2245051.2746497.56546541.4290728.9214.4173077.26121539-.0063249.5169707-.075621.74525-.2019231.25745-.1480769 1.0298-.875 1.1111-.9288461.28455.3096153.52845 1.1038461 1.4363 1.076923.90785-.026923 1.5176-.7403846 1.28725-1.5076923-.20658875-.4959323-.58018585-.9051579-1.0569-1.1576923 1.32704583-.8297613 2.71276064-1.5630846 4.14630002-2.1942307 3.2196341-1.4415924 6.6776491-2.2856246 10.20315-2.4903847.39295 0 .88075 0 1.2737.0807693v-3.9038462c-.3929932.2991236-.7359683.6580321-1.01625 1.0634616z"/><path d="m56.826122 68.4788462c.4827817-.5430196 1.1133527-.9357223 1.8157-1.1307693.09485 0-.31165-.3634615-.31165-.3634615-.323314-.2414915-.7204364-.3650792-1.12465-.35-.6608214.0155765-1.2946349.2636306-1.7886.7-.515135.4923291-.9454231 1.0653327-1.2737 1.6961538-.0348527.0135163-.0735473.0135163-.1084 0-.5725584-.1971838-1.1622316-.3413866-1.7615-.4307692 0 0 0-.0807692 0-.1211538.0782131-.5943563.3329557-1.1520685.7317-1.6019231.4205834-.5046691.9419445-.9172016 1.53115-1.2115385.50135-.2153846.7859-.0807692.71815-.175s-.25745-.4980769-1.28725-.4576923c-.7975246.0771817-1.5530845.3915069-2.168.9019231-.8223921.7380622-1.3831363 1.7200396-1.5989 2.8-.0251828.0488802-.0624904.0905772-.1084.1211538-.5962.1211539-1.1653.2692308-1.74795.4173077h-.09485c-.174891-.7520346-.1230525-1.5385802.14905-2.2615384.3228116-.713051.827206-1.3301482 1.4634-1.7903847 0-.201923-.5962-.2288461-.6504-.2288461-.9338119.149782-1.7447504.72169-2.1951 1.5480769-.6031712 1.0454815-.7500254 2.2904557-.4065 3.4461539.0075337.0264029.0075337.0543663 0 .0807692-.5230805.2149764-1.0341959.4576317-1.53115.7269231 0 0-.0813 0-.14905 0-.3096599-.5320122-.4992191-1.1245365-.55555-1.7365385-.1034777-.6206706.0921684-1.2536155.52845-1.7096154-.8947725.0663244-1.6363102.7150571-1.8157 1.5884616-.1048439.694757-.0254466 1.4046679.23035 2.0596153.11015.3112961.2461168.6129727.4065.9019231v.0942308c0 .0134615-1.04335.7942308-1.2195.9557692-.17615.1615385-.1084 0-.1355 0s-.50135-.6730769-.50135-.6730769c-.1787693-.2439938-.4482954-.4068702-.7485921-.4523791s-.6064449.030126-.8503079.2100714c-.4043813.4170673-.4043813 1.0771635 0 1.4942308.25745.2153846.8943.6192307.9485.6596154-.2638318.1922879-.5129328.4037664-.74525.6326923-.3560826.4785785-.2661776 1.1514409.20325 1.5211538.4329654.2938881 1.0199177.2122513 1.355-.1884615.23035-.2557693.52845-.9692308.813-1.0634616.28455-.0942307.2439.4038462 1.20595 1.023077.3602613.2003593.8112355.1339845 1.09755-.1615385.33875-.3769231.2981-1.225-.9756-1.7903846-.1084 0-.33875-.1346154-.20325-.2692308.3111905-.2908744.6416472-.5607094.98915-.8076923l.47425-.3634615c1.0573594-.7950239 2.2381599-1.4133978 3.4959-1.8307693.9659564-.3200502 1.9763389-.4881049 2.99455-.4980769 1.1004216.0137042 2.1889433.2281621 3.21135.6326923.7386222.2504783 1.3819242.7204065 1.8428 1.3461539.36585.4442307.6233-.148077.55555-.5788462s-.1897-.9826923-1.355-1.6961538c-.20325-.1346154-.23035-.2153846-.17615-.4038462.0542-.1884615.12195-.3903846.82655-1.2115384z"/><path d="m24.116422 13.475c-.5512039-.0041239-1.096737.1107006-1.5989.3365385-1.0386681.5837018-1.8032496 1.5513323-2.12735 2.6923077l-1.72085.0673076-1.77505.1211539c.0109507-.300315.0564123-.5984029.1355-.8884615.1571114-.6000161.4489608-1.1568927.85365-1.6288462.6990629-.8031679 1.6567692-1.3407393 2.71-1.5211538h.2439c-.3429564-.2315306-.7508528-.3493311-1.1653-.3365385-2.2981253.0125512-4.2076004 1.7636365-4.40375 4.0384615l-.0813.4846154-1.355.2692308c-.7252816.1302094-1.4406237.3101263-2.1409.5384615.0395863-.8559132.2563829-1.6945253.63685-2.4634615.3692246-.7218812.8861247-1.3592031 1.5176-1.8711539.1626-.1211538.3252-.2557692.50135-.3634615-.21998-.0641554-.4482435-.0959037-.6775-.0942308-1.3361814.0114271-2.5293334.8337056-3.0081 2.073077-.3977244 1.0762206-.5773187 2.2199502-.52845 3.3653846-.66395002.1615384-2.18155002.7403846-2.80485002.9826923-.18955412-.8194482-.18955412-1.6709365 0-2.4903846.15830207-.7089322.50988189-1.3609299 1.01625-1.8846154.14453334-.1435898.29358334-.2782052.44715-.4038462 0 0-.1626-.0942307-.7859 0-1.10580197.2811694-1.98094897 1.1199171-2.3035 2.2076923-.2436086 1.12723-.33925398 2.2810559-.28455 3.4326923-.3794.1884616-1.5989.7403847-1.82925.8211539-.05565944-.3041915-.16580447-.595994-.3252-.8615385-.20778316-.3199303-.56525395-.512719-.9485-.5115384-.22155087.0074114-.43883999.0625273-.63685.1615384-.19602055.1001178-.34272438.275013-.4065.4846154-.08638345.2719869-.06206194.5667722.06775.8211539.08810878.1584051.19255339.3072821.31165.4442307.09485.1076923.28455.3769231.28455.3769231-.40337495.1093903-.7809877.2969641-1.1111.5519231-.49962061.3359106-.66334761.9923523-.3794 1.5211538.17465506.3431079.53468259.5535062.9214.5384616.63008684-.002795 1.23185518-.2604007 1.66665-.7134616l.50135.7403846c.19770749.2966792.53637002.4700028.8943.4576923.19271392-.0050985.38211431-.0509921.55555-.1346153.38090018-.231205.60829889-.6470924.5962-1.0903847-.02435369-.3824058-.18253136-.7443155-.44715-1.0230769l-.09485-.1346154.8943-.4711538c1.42347878-.7925203 2.90991669-1.4678558 4.44440002-2.0192308 2.4662444-.8612542 5.0197241-1.4525745 7.6151-1.7634615.5336197-.0787319 1.0732191-.1102658 1.61245-.0942308.6689489.0422048 1.3272185.1875319 1.9512.4307692v-2.6923076h1.07045c.7031353-.8161381 1.6542588-1.3830865 2.71-1.6153847l.7317-.2153846c-.1106048-.1002432-.2335308-.1861819-.36585-.2557692-.4831865-.2730778-1.029451-.4168696-1.58535-.4173077z"/><path d="m40.403522 53.6038462c.33875 0 .58265-.175.82655-.7269231 0 0 .17615-.1076923.20325 0 .271.4307692.8672.8076923 1.2737.5923077.1520689-.0918345.260664-.2404732.3014238-.4125715s.0102721-.3532487-.0846238-.5028131l-.20325-.35c-.971108.3712129-1.979618.6374905-3.0081.7942307l.09485.2423077c.0914851.2425132.3371305.392266.5962.3634616z"/><path d="m28.723422 3.27115385c.6423749-.08280083 1.2899873-.11879436 1.93765-.10769231-.2297428-.54072904-.7642229-.89118296-1.355-.88846154-.7418762-.10916244-1.4992869-.0399171-2.20865.20192308-1.2656936.55629-2.2692285 1.57253873-2.80485 2.84038461-1.3087745-.07399625-2.6207255-.07399625-3.9295 0 .1357071-1.05091675.5263019-2.05336565 1.1382-2.92115384.7164131-.81997036 1.6583204-1.41417673 2.71-1.70961539.1588258-.04974527.3094711-.12230861.44715-.21538461-.23035-.21538462-.52845-.43076923-1.626-.47115385-1.4282442.01548985-2.75467.73748433-3.53655 1.925-.6484332 1.03624827-1.0300344 2.21518756-1.1111 3.43269231-2.10025.37692307-4.51215.99615384-4.51215.99615384.02522-.85044277.2042203-1.6894436.52845-2.47692307.5009623-.98568728 1.2710562-1.8113991 2.2222-2.38269231.1548524-.09467769.3041447-.1980506.44715-.30961539-.287826-.11453608-.599803-.15616985-.90785-.12115384-.7006429.0164501-1.3875835.19628648-2.0054.525-1.2849422.72415251-2.0850054 2.07281654-2.10025 3.54038461v1.88461539c-1.6161334.40584102-3.20843245.90018593-4.76960002 1.48076923-.14722566-1.07214672.01243482-2.16381271.4607-3.15.41830489-.92435338 1.09569455-1.7094819 1.9512-2.26153846.42005002-.25576923.43360002-.36346154.43360002-.39038462 0-.02692307-.0813-.08076923-.63685002-.08076923-.82923401.07774831-1.61441368.40668658-2.2493.94230769-.77253196.67159871-1.32473706 1.55779872-1.58535 2.54423077-.21017557 1.13922936-.21017557 2.30692449 0 3.44615385 0 0-1.355.65961543-1.897.92884613-.11189826-.3769218-.2959263-.72886305-.542-1.03653844-.43175594-.38758436-1.06439615-.45802083-1.5718-.175-.44351018.20105467-.70613789.66308835-.6504 1.14423074.05031933.3651408.20026936.7096364.4336.9961539-.38394202.1289362-.73203759.345652-1.01625.6326923-.34956402.3549067-.49262734.8625115-.3794 1.3461538.17650684.4437907.63517648.7105274 1.1111.6461539.58811467-.1299819 1.13069345-.4134407 1.5718-.8211539.20325.2288462.42005.4442308.63685.6596154.23454531.1747606.51981836.2692308.813.2692308.23544727-.0004214.46750654-.055752.6775-.1615385.41322853-.2333511.6474882-.688233.5962-1.1576923 0-.6596154-.7046-.9153846-.66395-1.1576923 3.19023189-1.77671867 6.61564992-3.09987725 10.17605002-3.93076922 2.4359619-.61122908 4.9287099-.97209962 7.43895-1.07692308 1.578714-.17526505 3.176897-.01465457 4.6883.47115385 1.255232.32222143 2.4070971.95693916 3.34685 1.84423077-.0162293-1.14815613-.6817756-2.18941796-1.72085-2.6923077-.8200521-.50895768-1.7476304-.82227535-2.71-.91538461.240508-.39190213.5221114-.75740141.8401-1.09038462.5220507-.50001369 1.1744259-.84505395 1.88345-.99615384z"/></g><path d="m42.7633096 35.729655.120519.003345c.456-.033.876.246 1.023.678.033.114-.03.225-.138.258-.108.057-.24.021-.303-.087-.111-.219-.33-.366-.576-.39-.261.018-.489.189-.579.435-.153.3-.231.63-.234.969-.009.342.057.678.195.99.105.276.372.456.669.447.465-.135.771-.579.729-1.062v-.165h-.591c-.009 0-.021 0-.033-.003-.135-.012-.237-.132-.222-.27 0-.099.03-.216.255-.216h.837c.273 0 .318.204.318.384.003.225-.012.447-.051.669-.084.408-.318.771-.648 1.023-.198.117-.426.18-.654.183-.423-.003-.804-.249-.99-.63-.222-.414-.33-.879-.318-1.35-.009-.465.111-.921.348-1.32.18-.363.558-.579.963-.543zm-12.968781.009345c.798.006 1.059.486 1.059.657 0 .147-.27.345-.417.165-.174-.195-.423-.303-.681-.297-.288-.03-.561.147-.651.423-.003.003-.003.009-.003.015-.045.27.138.525.408.57.411.024.81.144 1.167.351h-.012c.249.18.387.474.36.78.006.282-.099.555-.291.762-.291.27-.681.411-1.077.384-.462.015-.9-.216-1.146-.612-.015-.039-.042-.273.15-.339.132-.033.27.015.357.114.186.171.429.267.681.273.231.006.459-.072.642-.219.135-.132.174-.33.102-.504-.186-.279-.504-.444-.837-.429-.279 0-.549-.105-.75-.297-.222-.228-.333-.54-.303-.855.03-.294.192-.558.438-.714.24-.156.519-.237.804-.228zm16.3119-.039c.1475.0225.2741667.1095833.3452778.2334722l.0357222.0785278 1.053 3.111c.042.099.039.21-.015.303-.057.072-.144.111-.234.108-.0984 0-.18912-.04992-.24144-.128256l-.03156-.063744-.168-.543h-1.437l-.153.555c-.051.171-.174.192-.309.192-.078-.012-.147-.054-.192-.12-.03825-.04725-.05625-.108-.054-.1683281l.009-.0596719 1.011-3.171c.048-.177.201-.309.381-.327zm-12.9768.0678c.147.012.255.138.246.282-.012.147-.138.255-.285.246h-.504v2.976c0 .15-.123.27-.273.27s-.273-.12-.273-.27v-2.976h-.537c-.147-.012-.255-.138-.246-.282.012-.147.138-.255.282-.246zm2.9118 0c.153 0 .276.123.276.276v1.881c.027.399-.057.795-.246 1.14-.228.321-.609.492-.996.456-.387.027-.762-.144-.996-.456-.204-.342-.297-.741-.27-1.14v-1.881c0-.15.12-.273.27-.273s.273.123.273.273v2.055c-.015.228.042.459.162.654.132.171.339.261.555.243.21.021.417-.072.543-.243.114-.198.165-.426.15-.654v-2.055c.003-.153.126-.276.279-.276zm4.9242-.0246c.144 0 .261.117.261.264 0 .144-.117.261-.261.261h-.495v2.976c0 .15-.123.273-.276.273-.15-.003-.27-.123-.27-.276v-2.973h-.501c-.144 0-.264-.117-.264-.261 0-.147.12-.264.264-.264zm11.9238 0c.147 0 .264.117.264.264 0 .144-.117.261-.264.261h-.489v2.976c0 .15-.123.273-.276.273-.15-.003-.27-.123-.27-.276v-2.973h-.504c-.144 0-.261-.117-.261-.261 0-.147.117-.264.261-.264zm-14.3613 0c.144 0 .264.117.264.264 0 .144-.12.261-.264.261h-.495v2.973c0 .153-.123.273-.273.273s-.273-.12-.273-.273v-2.973h-.501c-.144 0-.261-.117-.261-.261 0-.147.117-.264.261-.264zm10.7202.012c.321-.009.639.078.909.255.279.216.45.543.468.894.039.321-.078.642-.312.861-.10575.11025-.2300625.20025-.3666094.2674688l-.1403906.0595312-.087.033.687.873c.06.066.093.15.096.237-.003.141-.099.225-.258.225-.072.00225-.1423125-.0225-.1944844-.0691875l-.0455156-.0538125-.819-1.125h-.51v1.005c.003.015.003.033 0 .048-.0051428.1234286-.098449.2182041-.2119067.2370962l-.0580933.0029038h-.045c-.1234286-.0154286-.216-.1146122-.2285947-.2314286l.0005947-.0595714v-3.162c-.003-.075.024-.15.069-.21.045-.045.100125-.0748125.1603125-.084375l.0616875-.002625zm-3.1299.5778-.591 2.04h1.215zm3.1959-.0678h-.648v1.428h.564c.021.003.045.003.066.003.432.015.792-.324.804-.756-.003-.183-.084-.357-.222-.474-.156-.141-.354-.21-.564-.201z"/><path d="m40.602 47.6530369v-.003c.024.381-.27.705-.651.726-.027.003-.051.003-.081 0-.135 0-.183-.21-.198-.516v-.351c0-.144.009-.279.021-.426.009-.099.009-.204.012-.303.003-.102 0-.237 0-.354-.015-.255 0-.513-.039-.765-.045-.309-.12-.612-.219-.906-.06-.192-.12-.354-.198-.537-.036-.081-.102-.18-.144-.258-.039-.075-.087-.144-.153-.201-.09-.084-.222-.123-.303-.219-.027-.036 0-.081.036-.105.357-.189.792-.135 1.092.135.477.39.771.96.813 1.578.123.831.129 1.674.012 2.505m12.171 5.64v-.003c-.147.027-.294.027-.438 0-.147-.027-.279-.114-.363-.234-.093-.105-.159-.231-.192-.366 0-.087.081-.162.147-.216.225-.159.411-.363.555-.597.114-.216.177-.453.183-.693 0-.042-.087-.066-.12-.036-.147.144-.243.357-.414.471-.162.108-.351.162-.546.153-.132-.012-.258-.072-.345-.168-.084-.111-.147-.237-.186-.369-.042-.114.138-.201.255-.225.252-.018.498-.093.723-.219.138-.081.255-.207.324-.36.045-.12.063-.243.066-.372 0-.057.033-.093-.021-.075-.135.045-.228.123-.345.159-.216.072-.453.06-.66-.042-.207-.15-.372-.345-.492-.57-.027-.042 0-.129.045-.135.207-.042.387-.273.543-.546.036-.054.063-.114.087-.177.03-.078.123-.159.135-.198.039-.162.054-.327.045-.492-.021-.141-.09-.267-.195-.363-.024-.033-.141-.036-.159 0-.093.171-.039.39-.138.555-.111.177-.255.33-.426.45-.084.066-.204.153-.3.108-.159-.081-.279-.231-.321-.408-.024-.207.024-.42.129-.6.192-.378.423-.738.681-1.071.192-.246.393-.411.57-.684.12-.177.21-.558.054-.618-.162-.06-.258.315-.402.402-.561.21-1.086.495-1.566.852-.219.291-.381.627-.468.984-.072.189-.024.483-.102.669-.033.072-.183.138-.24.093-.183-.165-.315-.378-.387-.612-.039-.162-.027-.33.036-.483.021-.066-.027-.126-.075-.096-.219.123-.387.321-.471.555-.093.321-.063.663.078.963.267.447.564.879.885 1.287.228.393.531.807.735 1.182.213.312.3.693.243 1.068-.087.387-.285.741-.573 1.014-.036.024-.117.063-.15.036-.297-.282-.612-.546-.936-.792-.399-.255-.843-.432-1.305-.522-.573-.063-1.152-.069-1.728-.015-.603.021-1.209.105-1.815.087-.492.021-.981-.042-1.449-.192-.351-.135-.645-.387-.828-.714-.168-.348-.231-.735-.183-1.119.024-.312.117-.615.27-.888.129-.243.324-.444.564-.579.27-.147.585-.192.885-.123.15.066.288.156.408.264.123.102.234.21.336.33.015.018.096 0 .102-.021.042-.408-.015-.819-.171-1.2-.153-.294-.33-.57-.534-.831-.021-.063.171-.057.237-.063.33-.018.651.078.915.27.18.126.33.285.447.471.012.021.063 0 .063-.021.033-.495-.135-.987-.465-1.359-.147-.213-.345-.387-.576-.504-.138-.048.105-.156.222-.156.258-.027.519.012.762.111.09.042.165.099.234.168.048.045.102.087.156.123.045.027.093-.057.075-.105-.033-.144-.09-.285-.171-.408-.384-.378-.795-.732-1.224-1.053-.033-.027-.114-.069-.138-.102-.117-.168-.207-.351-.27-.546-.027-.072-.138-.144-.177-.249-.03-.105-.018-.216.03-.312.126-.237.243-.273.507-.396.201-.066.408-.108.615-.129.069-.009.129.063.195.042.036-.009.051-.099-.048-.177-.249-.174-.543-.27-.849-.27-.402-.069-.813-.039-1.197.087-.288.159-.609.252-.936.273-.213.009-.429-.033-.621-.123-.138-.066-.237-.192-.27-.342-.009-.246.051-.492.171-.708.096-.156.24-.279.408-.351.114-.057.192-.102.183-.183-.012-.081-.168-.042-.225-.021-.363.081-.708.216-1.026.402-.234.21-.441.45-.621.708-.042.048-.09.087-.15.111-.069.027-.138.012-.213.039-.258.099-.519.228-.768.345s-.447.318-.702.408c-.201.063-.408.096-.615.099h-.018c-.414-.036-.954-.036-1.05.456-.027.102.021.207.111.258.072.045.147.084.225.111l.252.09c.063.015.117.045.156.09l.015.021v.021.024.024c-.03.075-.099.123-.177.126-.225.051-.459.021-.66-.084l-.045-.024c-.09-.057-.21-.039-.282.042-.444.363-.903.702-1.383 1.017-.051.03-.099.069-.135.111-.027.03-.045.066-.051.105-.006.033-.006.066 0 .099.018.108-.111.159-.198.186-.102.024-.174.114-.177.216-.009.081-.003.162.015.24.024.153.168.258.321.234.03-.003.06-.015.087-.027.12-.048.24-.087.36-.123.066-.024.141-.012.195.033.009.006.015.015.024.027l.009.021v.021c.003.036-.006.072-.024.102-.045.081-.096.153-.153.225-.057.081-.102.201-.009.27.171.138.414.126.57-.027.075-.078.141-.171.183-.27.048-.108.129-.189.234-.237.204-.087.423-.135.645-.135h.012c.159-.006.312.033.447.114.039.021.072.06.09.102l.012.03v.03.024.012c-.042.15-.102.294-.189.426-.039.093-.06.213-.105.333-.042.12-.108.243-.144.336-.036.096-.057.105-.138.174-.192.165-.462.324-.648.492-.339.318-.636.681-.882 1.074-.078.126-.132.261-.168.402v.012c-.066.345-.135.759-.546.531-.387-.216-.762-.456-1.125-.717-.132-.105-.246-.228-.339-.366-.354-.519-.795-.06-1.029.318-.372.582-.78 1.14-1.224 1.674-.069.084-.129.18-.171.282-.057.144-.141.276-.249.393-.123.162-.186.366-.174.57.009.351-.099.696-.312.978-.15.162-.243.375-.249.597 0 .195 0 .39.012.585.009.144.066.27.231.261.039-.006.075-.018.111-.033.297-.114.576-.27.831-.465.036-.03.069-.06.102-.096.075-.081.096-.201.051-.303-.012-.027-.033-.051-.054-.075-.018-.015-.036-.033-.054-.051-.063-.042-.111-.102-.135-.174 0-.018-.006-.033-.009-.051-.009-.066-.003-.132.015-.195.018-.087.033-.171.045-.261.009-.102.06-.198.138-.264.135-.111.273-.219.408-.327.198-.162.267-.435.168-.672-.015-.045-.027-.09-.033-.135-.003-.024-.003-.051 0-.072.021-.108.063-.207.135-.291.09-.135.177-.255.273-.381.123-.213.33-.366.567-.429.306-.036.606.063.828.273.237.3.402.657.477 1.038.084.309.213.606.378.879.108.21.366.294.573.186.033-.015.06-.036.087-.06l.039-.024c.015-.009.03-.015.045-.021.087-.024.18.018.225.096.114.135.234.264.366.381.156.096.024.216-.105.213h-.318c-.093-.003-.186.012-.273.045-.636.198-1.293.3-1.959.303-.042 0-.084.003-.126.012-.078.015-.15.066-.183.138-.012.024-.021.045-.03.072-.027.063-.048.123-.072.189-.057.147-.057.315 0 .465.267.906.336 1.857.201 2.79-.072.336.012.684.222.951.081.099.189.168.309.201.051.015.096.039.135.072.087.099.129.225.126.351.015.186.09.357.213.492.165.21.375.384.609.507.027.012.051.024.078.033.126.057.276 0 .336-.126v-.003c.141-.3.21-.63.201-.966-.006-.153-.114-.285-.264-.321-.018-.006-.033-.009-.051-.012-.054-.003-.111.018-.15.054l-.015.012c-.027.015-.057.024-.09.03-.012.003-.027.003-.042 0-.015.003-.03.003-.048 0-.015 0-.03-.006-.039-.012-.015-.003-.03-.009-.042-.018-.084-.054-.147-.135-.186-.228-.075-.186-.087-.393-.033-.585.012-.057.027-.114.036-.171.021-.09.027-.183.012-.273-.012-.093-.036-.18-.072-.264-.069-.15-.09-.21-.216-.252l-.042-.018c-.06-.018-.111-.048-.159-.087-.012-.006-.018-.015-.027-.027-.021-.039-.027-.09-.012-.135.069-.438.084-.882.045-1.326 0-.144-.033-.297.09-.408.306-.255.816-.051 1.134.069.417.147.846.258 1.281.33h.012c.708.069 1.422-.126 1.998-.543.057-.048.06-.063.123-.024.231.135.372.297.606.444.522.342 1.095.603 1.698.777.807.078 1.623.069 2.43-.021.204.012.408.057.597.126.048.015.081.06.075.108-.021.297-.135.582-.135.879.021.162.078.315.168.45.072.135.117.324.204.456l.084.156c.468.582.48 1.407.027 1.998-.306.297-.633.564-.984.804-.333.252-.723.405-1.137.441-.276.015-.537.123-.735.312-.228.24-.492.444-.78.609-.117.045-.21.141-.246.264-.141.33-.243.678-.309 1.032-.042.204.111.27.288.249.303-.048.597-.126.882-.24.153-.048.237-.207.192-.36-.006-.021-.015-.042-.027-.06l-.093-.258c-.012-.024-.018-.051-.021-.078v-.03-.033c.009-.027.024-.057.045-.078.051-.063.108-.117.177-.156.081-.06.18-.084.282-.075.063.012.129.03.192.048.366.129.771-.018.969-.351.027-.039.051-.081.078-.123.069-.12.159-.222.273-.306.768-.498 1.596-.903 2.46-1.212.075-.018.138-.075.168-.147.012-.108.006-.216-.018-.321-.033-.306-.039-.612-.015-.918.006-.213.081-.594.357-.6.111.015.21.078.273.174.276.351.645.618 1.065.762.129.045.252.093.375.147.33.15.561.453.615.807.039.195-.006.399-.123.558-.297.387-.57.786-.831 1.2-.132.216-.309.402-.516.546-.318.216-.627.45-.924.702-.237.156-.435.363-.576.609-.165.42-.306.849-.429 1.281-.066.249.087.306.306.258.33-.084.648-.213.942-.381.045-.024.087-.057.123-.096.039-.051.063-.114.06-.18-.015-.114-.06-.222-.135-.309-.084-.105-.108-.246-.066-.372.009-.018.018-.036.027-.051.045-.069.117-.117.192-.138.237-.075.474-.135.714-.201.318-.042.606-.189.831-.414.042-.054.072-.117.09-.186v-.018l.015-.054c.282-.972.936-1.797 1.818-2.298.111-.06.183-.174.192-.3.018-.123.009-.246-.039-.363l-.669-1.032c-.195-.267-.321-.579-.366-.909.006-.345.093-.69.255-.996.06-.087.114-.18.165-.273.117-.258.342-.348.522-.582.183-.225.351-.465.498-.717.147-.327.267-.669.354-1.02.087-.27-.048-.555-.021-.834.018-.099.063-.195.126-.27.117-.165.279-.291.465-.36.195-.045.399-.033.588.039.348.099.576.234.93.315.186.039.375.027.558-.033.192-.051.369-.153.507-.294.045-.054.045-.159.003-.153"/></g><g transform="translate(2.71 1.6)"><path d="m75.0575 15.5483c-3.078-1.173-6.213-2.19-9.396-3.045-.051-.015-.078-.09-.078-.138v.408c0 .057.027.132.078.138 3.174.852 6.303 1.863 9.369 3.033.138.048.138-.057.138-.099l.024-.366c0 .042-.027.102-.132.063zm.135-2.979c-2.202-.816-4.731-1.647-7.272-2.355-.036-.009-.096 0-.096.03l-.018.393c.036-.018.072-.024.114-.018 2.541.711 5.046 1.539 7.248 2.358.036.012.042-.042.042-.078l.024-.408c0 .039-.006.084-.042.072zm-.135-3.201c-1.878-.69-4.572-1.632-7.029-2.259-.033-.009-.096.009-.096.045v.399c0-.033.063-.054.099-.045 2.457.627 5.115 1.554 6.993 2.247.165.06.261.039.261-.117l.03-.351c-.015.114-.105.132-.258.075zm-11.076 2.706c-.603-.135-1.206-.288-1.836-.435-.072-.027-.12-.093-.117-.171v.408c0 .075.048.144.117.171.63.144 1.212.294 1.812.432.156.036.18.009.183-.051l.027-.408c-.003.057-.03.084-.186.048zm-7.14-1.473c-.555-.111-1.299-.204-1.971-.321v.345c.672.117 1.392.195 1.947.309.06.012.153-.033.153-.096l.018-.306c-.03.048-.09.072-.144.063zm5.238-1.413c0-.159 0-.237.009-.408 0-.108-.195-.135-.225-.135-1.608-.348-3.18-.666-4.8-.954-.06-.009-.087-.006-.087.054v.411c0-.063.021-.066.081-.054 1.62.288 3.192.606 4.8.951.039-.003.222.024.222.129zm-8.07.966c-2.964-.453-5.574-.681-8.232-.939-.588-.138-1.014-.654-1.035-1.26v.408c.021.606.447 1.122 1.035 1.26 2.658.249 5.244.477 8.211.927.042 0 .135-.033.135-.078l.024-.393c-.006.036-.09.075-.135.066zm.114-6.054c-2.298-.246-4.596-.669-6.897-.855-.15-.012-.36.066-.36.216v.408c0-.15.21-.228.36-.216 2.301.186 4.599.606 6.897.855.06 0 .156-.03.156-.093v-.408c0 .054-.093.093-.156.093zm-12.066 4.857c-2.73-.159-5.466-.159-8.193 0v.408c2.727-.159 5.463-.159 8.193 0 .657-.018 1.209-.498 1.326-1.143v-.408c-.12.642-.669 1.116-1.326 1.137zm-6.819-2.706c2.01.048 3.789.009 5.736.138.135.009.261.084.261.225l.009-.393c0-.144-.126-.231-.27-.24-1.947-.129-3.726-.093-5.736-.135-.579-.015-1.341-.465-1.332-1.044v.408c-.006.573.756 1.023 1.335 1.035zm7.815-2.796c.15-.024.261-.153.264-.303v-.411c-.003.153-.114.282-.264.306-1.974-.06-4.863-.156-6.801-.084-.123 0-.198.042-.201.162l-.03.393c0-.123.108-.144.231-.15 1.941-.072 4.827.018 6.801.081zm-18.183 6.303-2.04.264v.408l2.04-.273c.033 0 .057-.03.057-.063-.003 0-.003 0-.003-.003v-.408c.006.033-.018.063-.051.069h-.003zm7.815-.729-2.031.15c-.06-.519-.231-1.023-.498-1.476-.327-.531-.75-.798-1.11-.732l-4.125.444v.408l4.122-.447c.36-.066.786.201 1.113.735.267.453.435.954.498 1.476l2.031-.15c.045 0 .135 0 .126-.042v-.408c.003.039-.078.033-.123.036zm-.348-3.822v-.486c.033.591-.312 1.143-.855 1.377.102.078.198.165.288.255.372-.261.588-.696.57-1.152zm-2.67-1.911-4.839.468-.039.018v.438l.039-.021 4.839-.465c.18-.033.348.087.381.267 0 .009.003.018.003.03v-.438c-.015-.18-.174-.318-.354-.306-.009 0-.018.003-.03.003zm-9.639 7.14c-2.337.408-4.725.876-7.092 1.398-.357.003-.69-.177-.885-.477-.264-.306-.426-.684-.456-1.089v-.036-.03.423c.042.402.201.78.459 1.089.282.33.612.561.882.501 2.37-.522 4.761-.951 7.095-1.359.459-.108.867-.363 1.167-.723.258-.273.408-.63.423-1.002v-.435c-.015.375-.165.729-.423 1.002-.3.363-.708.621-1.17.732zm-.975-5.769c-.147-.084-.315-.114-.48-.087-1.296.189-2.949.513-4.206.75-.198.036-.375.126-.522.258-.108.114-.174.264-.177.423v.432c.003-.159.069-.309.177-.423.147-.132.324-.222.522-.258 1.257-.237 2.91-.561 4.206-.747.165-.03.336.003.48.087.156.099.246.276.231.459l.006-.429c.018-.189-.072-.369-.234-.471zm-16.182 10.035c0 .063 0 .117-.06.135-.441.144-2.496.927-2.496.927v.321.075s2.055-.774 2.496-.918c.06-.018.06-.075.06-.135zm7.911-5.712c.006.243-.072.48-.225.672-.156.198-.363.351-.6.438l-7.056 2.157c-.057.018-.069.105-.069.165l.009.396c0-.063 0-.153.06-.171l7.059-2.163c.237-.084.444-.237.6-.438.153-.189.231-.429.225-.672v-.381zm-7.938.162c-.075.021-.162.084-.162.156v-.396c0-.075.087-.138.159-.159 1.704-.684 3.447-1.269 5.22-1.749.159-.045.309.135.321.267l.039.387c-.015-.126-.183-.312-.342-.273-1.779.486-3.528 1.077-5.238 1.77z" fill="#432918"/><path d="m35.207.974c-.534.021-1.257.471-1.263 1.002l-.036 2.814c-.009.579.753 1.029 1.329 1.044 2.013.045 3.792.009 5.736.135.144.012.273.093.273.24l-.015.57c.006.102-.072.189-.174.195h-.021c-2.268 0-4.641-.105-6.936.078-.12.009-.114-.024-.123.096l-.099 1.668-.012.138c2.73-.159 5.466-.159 8.196 0 .66-.021 1.212-.498 1.326-1.146l.027-2.727c0-.558-.69-.975-1.14-1.002-1.923-.12-4.113-.054-6.066-.105-.114-.012-.198-.108-.192-.219l.036-.63c0-.123.084-.159.207-.165 1.935-.069 4.821.021 6.801.084.147-.024.258-.15.258-.306v-1.38c0-.072-.135-.291-.27-.294l-.003-.006c-1.701-.075-3.501-.132-5.274-.132-.867 0-1.728.015-2.565.048zm-12.36 1.068c-.003 0-.006 0-.009 0l-.012 7.875v.102l2.049-.27c.036-.003.057-.033.054-.069v-2.277l4.128-.444c.357-.066.786.198 1.11.735.27.45.438.954.501 1.476l2.031-.15c.042 0 .135 0 .123-.042-.06-1.098-.54-2.127-1.341-2.883v-.003.003c.543-.222.888-.762.855-1.347.021-.822-.009-1.641-.093-2.46-.144-.609-.675-1.047-1.302-1.071-1.839.03-5.829.54-8.094.825zm1.938 3.516v-1.776l.036-.021 4.836-.468c.186-.03.354.093.384.273 0 .009.003.015.003.027l.009.822c-.006.351-.261.654-.609.717l-4.623.456zm21.795-4.257c-.879-.03-1.644.582-1.797 1.443l-.042 5.199c.024.606.447 1.122 1.038 1.263 2.658.246 5.265.483 8.232.933.045.009.138-.033.138-.075v-1.809c-.021-.06-.063-.102-.123-.129-1.974-.249-4.584-.6-6.912-.843-.144-.033-.246-.156-.252-.303v-3.537c0-.147.213-.225.366-.213 2.298.186 4.593.609 6.894.852.06 0 .156-.03.156-.09l.048-1.662c-.006-.069-.057-.126-.129-.141-2.553-.372-4.509-.582-7.62-.891zm8.517 1.137c-.024 1.194-.189 6.345-.225 7.716v.114c.678.114 1.419.21 1.971.321.063.012.153-.033.153-.096-.009-.9 0-1.944-.018-2.763 0-.057.027-.06.087-.054 1.617.291 3.192.606 4.8.951.033.012.222.036.222.138-.006.939-.033 1.74-.057 2.682-.003.078.048.147.12.171.63.147 1.233.297 1.83.435.159.036.183.012.189-.051.096-1.962.126-5.106.156-7.761 0-.033-.012-.084-.048-.096-.657-.15-1.287-.309-1.965-.459-.063-.012-.096.093-.099.153-.066.969-.039 1.869-.117 2.838 0 .036 0 .054-.039.048-1.611-.333-3.324-.696-4.929-.993-.045-.006-.024-.087-.021-.135.009-.951.006-1.893.012-2.841-.006-.06-.051-.111-.108-.129-.633-.108-1.17-.195-1.815-.297-.054 0-.096.06-.099.108zm-34.947 0c-2.361.369-4.737.873-7.134 1.389-.387.111-.732.327-1.002.624-.255.231-.417.549-.45.897l.024 4.86c.015.429.177.837.459 1.158.192.303.525.48.888.4770375 2.373-.5220375 4.764-.9900375 7.107-1.4010375.459-.108.867-.363 1.167-.723.261-.273.411-.63.429-1.005l-.018-5.067c-.03-.342-.201-.651-.474-.861-.246-.225-.567-.351-.897-.351-.033 0-.066.003-.099.003zm-6.345 7.164c-.105-.123-.153-.282-.135-.441v-3.156c.003-.159.066-.309.174-.423.15-.132.33-.222.525-.261 1.263-.237 2.919-.561 4.215-.747.165-.03.339.003.483.087.156.099.249.276.24.465l-.042 3.063c.009.18-.072.348-.216.453-.153.111-.33.18-.519.207-1.245.252-3.063.588-4.344.828-.036.009-.072.015-.111.015-.096 0-.192-.03-.27-.09zm51.969-5.04c-.033-.006-.033.051-.033.081-.063 2.634-.129 5.079-.153 7.716 0 .048.024.123.078.138 3.18.855 6.315 1.869 9.396 3.045.135.048.135-.057.135-.096.009-.6.039-1.212.009-1.809-.006-.066-.048-.12-.111-.144-2.364-.912-4.779-1.698-7.227-2.358-.045-.015-.075-.06-.078-.111l.033-.789c.003-.027.06-.039.093-.027 2.541.705 5.073 1.539 7.275 2.355.039.015.039-.039.039-.078.027-.675.042-1.353 0-2.031 0-.054-.033-.096-.084-.111-2.256-.822-4.623-1.59-7.131-2.277-.039-.015-.078-.045-.078-.081v-.837c0-.036.057-.054.093-.045 2.454.627 5.148 1.569 7.029 2.259.162.063.258.036.258-.117.006-.684.03-.729-.006-1.41-.006-.087-.012-.174-.096-.207-3.09-1.191-6.24-2.217-9.438-3.072zm-56.814.321c-2.832.723-5.67 1.8-8.511 2.841-.081.045-.135.129-.138.222v6.381l.018 1.437s2.052-.774 2.493-.918c.06-.021.06-.075.06-.135l-.042-2.265c0-.066.006-.156.069-.177l7.068-2.181c.24-.087.45-.237.606-.438.15-.195.228-.435.2250834-.681l-.0750834-2.976c-.036-.348-.228-.66-.516-.855-.27-.192-.591-.294-.918-.294-.111 0-.225.012-.339.039zm-6.279 5.589.006-1.557c0-.078.087-.138.156-.159 1.713-.684 3.459-1.272 5.238-1.755.162-.042.306.138.321.273.036.357.051.72.039 1.08l.003.006c0 .201-.282.429-.471.486l-5.16 1.68c-.009.003-.024.003-.036.003-.045 0-.096-.015-.096-.057z" fill="url(#c)" mask="url(#d)"/><path d="m9.0107 5.1842c.318-.069.654-.012.933.153.255.141.426.39.474.678l.069 2.967c.006.216-.081.423-.24.57-.102.117-.234.204-.381.261l-7.326 2.289.036 2.52s-1.839.666-1.95.693v-3.537c0-1.08864-.031752-2.939328-.03835642-3.54279744l-.00064358-.19520256c.003-.066.042-.084.144-.12s2.346-.84 5.127-1.797c.828-.285 2.76-.87 3.153-.939zm57.0363-.2889c.129.021 2.877.807 4.206 1.236 1.326.429 2.664.891 3.975 1.377l.048.021.297.105.429.153c0 .171.003.528.003.696 0 .1044-.00432.25524-.00972.393552l-.01128.242448h-.009l-.495-.186-.345-.138-.042-.012c-.861-.306-1.683-.588-2.469-.846-.786-.255-1.527-.483-2.223-.678l-.015-.006h-.018l-.609-.174-.633-.177-.537-.147v1.515l.336.09.234.063.408.12.414.114c.894.261 1.791.531 2.676.816.888.285 1.77.579 2.631.885l.207.069.468.162v.207c0 .177-.018 1.347-.018 1.347l-.027-.012-.456-.135-.318-.099c-.909-.321-1.869-.642-2.853-.951-.987-.312-1.992-.612-2.991-.897l-.786-.225-.012.744-.015.723v.015l.318.099.615.177.6.18.486.15c.864.261 1.692.528 2.493.801.798.27 1.641.522 2.361.801l.075.024.078.033.138.054.255.096c.018.474.006.951-.036 1.422h-.015l-.456-.162-.087-.033-.09-.03c-1.458-.531-2.907-.975-4.215-1.395-1.305-.417-2.898-.915-4.089-1.236v-.03c.009-.642.027-1.863.051-3.012.021-1.146.066-4.257.078-4.35zm-10.6638-2.1672c.111.015.348.051.456.069.111.015.222.033.33.051l.273.045c.09.015.273.045.363.057v1.437l-.012.825-.015.855.114.021c.144.024.288.048.432.075l.432.081.168.03c.582.114 1.179.234 1.767.354l1.707.354.456.096.273.057.363.075h.012l.009-.309v-.171c.021-.249.036-.492.045-.735s.021-.483.021-.717v-.348l.009-.273v-.501c.183.039.555.12.759.168.201.045.405.093.6.147l.063.009h.015v.378c-.012 1.077-.024 2.181-.042 3.231s-.039 2.046-.069 2.916v.207l-.012.438v.006l-.438-.099-.279-.069-.312-.072-.462-.108v-.021l.012-.297v-.558c.006-.159.003-.315.015-.471.009-.162.009-.324.009-.501v-.441c0-.027.0013333-.086.0031111-.15566667l.0057778-.21966666c.0017778-.06966667.0031111-.12866667.0031111-.15566667h-.021l-.3-.066-.297-.069-.117-.021-.117-.024c-.909-.183-1.89-.381-2.712-.543-.819-.165-1.482-.294-1.755-.342l-.06-.009-.057-.009c-.051-.012-.195-.042-.234-.042-.0036.0402-.00504.12408-.005616.205152l-.0006184.53176988c-.0007031.23245312-.0035156.49232812-.0147656.71507812-.009.22275-.01125.408375-.0118125.48726563l-.0001875.04073437-.006.423-.009.561h-.024c-.162-.027-.435-.069-.57-.093l-.375-.06-.219-.039c-.072-.012-.294-.057-.378-.072l.0004861-.1425c.0015972-.23208333.0070139-.5725.0145139-.8025.009-.273.021-.573.033-.894.009-.192.015-.393.024-.6.006-.21.018-.42.018-.639.024-.747.048-1.509.069-2.193s.039-1.287.051-1.713zm-35.3331.0879c.552-.099 1.08.264 1.191.813.006.351.033 4.674.033 5.022-.066.663-.54 1.218-1.182 1.395-.66.129-6.414 1.26-6.936 1.368-.522.105-1.185-.564-1.185-1.116l-.0002916-.40827378c-.0000462-.04800178-.0000973-.09908733-.0001528-.15294844l-.0008516-.75983378c-.000084-.071134-.0001707-.14381067-.0002596-.21772178l-.0005564-.45581422c-.000096-.077616-.0001933-.15585-.0002916-.23439378l-.000896-.706936c-.0000995-.07762844-.0001986-.154642-.0002968-.23073244l-.0005752-.44299956c-.0000928-.07116511-.000184-.14079066-.0002728-.20856844l-.0009316-.70491378c-.000064-.048064-.000124-.09304733-.0001796-.13464178l-.0004444-.33122222c0-.552.6-.996 1.116-1.125.513-.126 6.576-1.293 6.969-1.368zm-11.9094 3.8982h-.087s-1.644.468-2.532.768c-.885.3-3.111 1.152-3.111 1.152s.033 2.163.033 2.211l5.625-1.809c.165-.054.318-.147.444-.27.138-.123.222-.294.237-.477 0-.207-.036-.837-.054-1.041-.018-.138-.081-.264-.177-.363-.096-.105-.234-.168-.378-.171zm11.4954-1.7532c0-.426-.183-.804-.834-.699-.831.138-3.555.627-4.464.804-.747.147-1.038.429-1.038 1.068v3.186c0 .456.282.795.756.708s4.467-.852 4.92-.954c.417-.087.705-.465.681-.891.009-.423-.021-2.991-.021-3.222zm26.8847203-3.41198086.1446797.00188086c.438.048 1.413.147 2.643.282 1.596.183 3.585.399 4.749.564v.771l-.015.669c-.858-.117-6.27-.843-6.9-.891-.147 0-.288.048-.405.135-.105.09-.153.225-.135.36v3.942c0 .06.018.114.057.159.039.042.09.072.15.078.966.096 1.905.219 2.919.339 1.014.123 1.95.225 2.892.348l.054.006h.054l.477.069.633.09v.633l-.009.732-.546-.081c-1.215-.171-2.343-.285-3.537-.411-1.191-.123-2.352-.231-3.438-.333l-.078-.009h-.078c-.108-.003-.216-.018-.324-.045-.198-.045-.375-.141-.522-.279-.09-.087-.159-.192-.201-.309-.048-.126-.072-.261-.069-.396l.012-2.658-.000552-.06264c-.001368-.16152-.004848-.61296-.005448-1.08936l.000168-.35784c.001152-.47232.006432-.90336.020832-1.02816.054-.351.249-.663.543-.867.291-.255.672-.384 1.059-.36zm-15.6972879-.06942108.0661676.00200194c.78.048.951.453.996.864.099.861.132 1.731.093 2.595-.108.468-.405.867-.816 1.107.453.387.825.861 1.092 1.392.21.429.336.897.372 1.374l-1.707.105c-.105-.495-.285-.972-.525-1.416-.237-.522-.771-.846-1.341-.816-.279931.033-.9781106.10700476-1.7376261.18681418l-.4182189.04389651c-1.1200301.1174641-2.2325343.23366862-2.239155.24028931-.0039474.00236842-.0058172.1649169-.0064295.40317612l.0000787.49238883c.0009623.47792506.003884 1.01992477.0054061 1.28001283l.0009447.15542222-.792.108-.789.105v-7.464s7.032-.804 7.812-.756zm7.1485535-.2360266c.4394085.00137894.8969541.00474854 1.3455141.01122854.474.006.954.018 1.392.033h.144c.786.018 1.314.039 2.1.081v1.302c-.45.006-1.05-.036-1.554-.024h-.651c-.447-.00375-.9466875-.007125-1.4473594-.01007812l-.4281825-.00242685c-.9940274-.00541645-1.932903-.00909183-2.4030019-.01065114l-.2784921-.00080959-.0269641-.0000343c-.21.012-.303.057-.345.15-.03.21-.042.426-.036.642v.273c-.009.093-.012.183-.009.279-.003.087.024.174.081.246.03.033.069.054.114.063.01125.0045.154125.00675.3684375.00759375l.620694-.000243c.6382035-.00190575 1.3891185-.00735075 1.6118685-.00735075.621.003 1.281.006 1.92.018.639.006 1.281.027 1.863.063.183.036.351.126.48.261l.08052.074256c.09936.106464.16608.241344.19248.387744l-.015 1.431-.015 1.428c-.03.204-.144.387-.315.498-.168.141-.372.225-.588.24l-.921-.024-.816-.033c-.393-.015-.768-.033-1.167-.042-.402-.012-.813-.021-1.308-.021s-1.05.006-1.653.024c-.6.015-1.374.045-2.094.078l.051-1.302c.42-.027.993-.051 1.497-.072s1.041-.021 1.602-.021h.972l.969.012h.828c.258 0 .921.015.936.015.243 0 .363-.033.423-.123.057-.15.078-.315.06-.477l.006-.177.009-.174c.018-.153.012-.303-.012-.453-.036-.117-.117-.195-.306-.21-.663-.042-1.359-.069-2.049-.084s-1.38-.027-2.034-.027l-.966-.009c-.33-.006-.666-.015-.993-.015-.225-.015-.438-.087-.627-.213-.159-.084-.267-.234-.297-.408l.015-1.509.018-1.506c.039-.174.147-.321.3-.411.174-.129.375-.21.588-.24l.0862307-.00047693c.2377935-.00182477.8555258-.00837734 1.6362155-.01069977zm-8.2943859 1.78002854-5.067.504-.006 1.128v1.125l2.439-.222 2.433-.219c.246-.018.48-.123.657-.297.165-.171.255-.402.249-.639l-.003-.828c.015-.15-.042-.3-.15-.408-.165-.102-.357-.153-.552-.144z" fill="#000"/></g></g><g fill="#000"><g transform="translate(36 162)"><path d="m158.9889 7.3224336h-.003l-27.687.009c-.381.021-.708-.243-.732-.588v-.033-2.691c0-.351.315-.636.705-.633h.024 31.416v-3.354l-32.214-.03c-2.391.021-4.308 1.836-4.284223 4.011v.006 2.691c0 2.202 1.962223 3.987 4.383223 3.987l27.69-.006c.381-.018.705.249.726.597v.024h-.003l.006 2.697c-.003.348-.315.624-.693.621h-.033-31.476v3.372h32.175c2.415.003 4.374-1.794 4.377-3.99v-2.7c-.006-2.199-1.962-3.981-4.377-3.99"/><path d="m116.8131 8.6364336h-.003c.006.342-.282.63-.66.657h-27.867v-5.325l27.789.009c.411.006.738.309.741.681zm.144 3.222c2.352-.078 4.209-1.845 4.194-3.984l.003-3.891v-.003c-.003-2.187-1.953-3.981-4.359-3.97800375v.01800375l-32.85-.01800375v17.99999995h4.338v-4.7609962h24.177c2.418 0 4.383 1.785 4.383 3.987v.7739962h4.359v-.1139962h.003c0-2.592-1.662-4.947-4.248-6.03z"/><path d="m74.3913 13.3650336c-.009.351-.312.636-.696.657h-26.547c-.3-.003-.546-.216-.57-.486v-9.009c.045-.324.354-.564.711-.555l26.343.006c.414.003.747.303.759.678zm.036-13.3650336h-27.813c-2.418-.0089664-4.392 1.7910336-4.404 3.9930336v10.02.006c.018 2.199 1.989 3.996 4.401 3.9810932h27.75c.009 0 .021-.0300932.033-.0300932 2.4-.012 4.332-1.791 4.317-3.972l.0030561-10.017c.0119439-2.169-1.9020561-3.96-4.2870561-3.9810336z"/><path d="m32.772 8.6364336c.009.345-.282 1.242-.657 1.263h-27.777v-5.931l27.696.009c.411.006.738.309.741.681zm-.03-8.616v-.018h-32.742v18h4.338v-4.761h28.404.021c2.406-.003 4.353-1.782 4.347-3.969l.006-5.292h.003v-.015c-.012-2.19-1.971-3.954-4.377-3.945z"/><path d="m288.0006 3.3807336v-3.378h-38.463v18h38.463v-3.372h-34.122v-3.948h34.122v-3.354h-34.122v-3.948z"/><path d="m240.0708 7.2990336h-26.364v-7.299h-4.338v18h4.338v-6.753h26.364v6.753h4.338v-18h-4.338z"/><path d="m168.5367 3.9945336.003 10.017c-.015 2.19 1.923 3.978 4.326 3.99h.024 31.425v-3.978h-30.837c-.297-.006-.543-.216-.567-.486v-9.009c.045-.324.351-.564.708-.555h30.696v-3.95103399h-31.371c-2.424-.00896601-4.395 1.77003399-4.407 3.97203399"/></g><path d="m239.4861 39.71121c2.244-.948 4.776-.948 7.023 0 1.068.453 2.037 1.107 2.853 1.926.816.822 1.47 1.791 1.923 2.856.951 2.238.951 4.764 0 6.999-.453 1.065-1.107 2.034-1.923 2.856s-1.785 1.476-2.853 1.929c-2.247.948-4.779.948-7.023 0-1.065-.456-2.034-1.11-2.856-1.929-.81-.822-1.461-1.791-1.92-2.856-.948-2.235-.948-4.761 0-6.999.459-1.062 1.11-2.031 1.92-2.856.822-.819 1.791-1.473 2.856-1.926zm10.482 5.13c-1.68-3.825-6.141-5.562-9.966-3.885-1.83.747-3.282 2.202-4.032 4.032-.786 1.923-.786 4.077 0 6 .75 1.83 2.202 3.282 4.032 4.035 1.923.783 4.077.783 5.997 0 1.833-.75 3.285-2.205 4.032-4.035.786-1.923.786-4.077 0-6-.021-.051-.042-.099-.063-.147zm-6.7989-2.2788c.642-.021 1.284.078 1.89.294.438.156.825.414 1.143.753.267.294.459.645.567 1.026.102.354.153.72.156 1.086 0 .66-.237 1.299-.669 1.8-.48.552-1.137.921-1.863 1.041l2.316 5.247h-1.512l-2.199-5.046h-2.199v5.046h-1.377v-11.244zm-.065531 1.2227578-.231469.0042422h-2.073l.003 3.756h2.101392c.373248-.0096.743808-.0576 1.108608-.144.294-.069.567-.204.804-.393.177-.15.309-.351.378-.573.066-.24.099-.489.096-.738.066-.576-.177-1.146-.645-1.497-.54-.303-1.155-.444-1.773-.411z"/></g></g></svg>